<svg width="70" height="70" viewBox="0 0 115 114" fill="none" xmlns="http://www.w3.org/2000/svg">
<g clip-path="url(#clip0_13_53)">
<g filter="url(#filter0_d_13_53)">
<path d="M0.390256 57C0.390257 41.8827 6.3956 27.3845 17.0852 16.6949C27.7747 6.00534 42.2729 1.3247e-06 57.3903 2.6463e-06C72.5076 3.9679e-06 87.0058 6.00535 97.6954 16.6949C108.385 27.3845 114.39 41.8827 114.39 57C114.39 72.1173 108.385 86.6155 97.6953 97.3051C87.0058 107.995 72.5076 114 57.3903 114C42.2729 114 27.7747 107.995 17.0852 97.3051C6.39559 86.6155 0.390255 72.1173 0.390256 57ZM53.8278 81.9375C53.8278 82.8823 54.2031 83.7885 54.8712 84.4566C55.5393 85.1247 56.4454 85.5 57.3903 85.5C58.3351 85.5 59.2412 85.1247 59.9093 84.4566C60.5774 83.7885 60.9528 82.8823 60.9528 81.9375L60.9528 40.6624L76.243 55.9598C76.912 56.6287 77.8192 57.0045 78.7653 57.0045C79.7113 57.0045 80.6186 56.6287 81.2875 55.9598C81.9565 55.2908 82.3323 54.3835 82.3323 53.4375C82.3323 52.4915 81.9565 51.5842 81.2875 50.9152L59.9125 29.5402C59.5816 29.2085 59.1885 28.9453 58.7557 28.7657C58.3228 28.5861 57.8589 28.4936 57.3903 28.4936C56.9217 28.4936 56.4577 28.5861 56.0249 28.7657C55.5921 28.9453 55.1989 29.2085 54.868 29.5402L33.493 50.9152C32.8241 51.5842 32.4483 52.4915 32.4483 53.4375C32.4483 54.3835 32.8241 55.2908 33.493 55.9597C34.1619 56.6287 35.0692 57.0045 36.0153 57.0045C36.9613 57.0045 37.8686 56.6287 38.5375 55.9597L53.8278 40.6624L53.8278 81.9375Z" fill="white"/>
</g>
</g>
<defs>
<filter id="filter0_d_13_53" x="-3.60974" y="0" width="122" height="122" filterUnits="userSpaceOnUse" color-interpolation-filters="sRGB">
<feFlood flood-opacity="0" result="BackgroundImageFix"/>
<feColorMatrix in="SourceAlpha" type="matrix" values="0 0 0 0 0 0 0 0 0 0 0 0 0 0 0 0 0 0 127 0" result="hardAlpha"/>
<feOffset dy="4"/>
<feGaussianBlur stdDeviation="2"/>
<feComposite in2="hardAlpha" operator="out"/>
<feColorMatrix type="matrix" values="0 0 0 0 0 0 0 0 0 0 0 0 0 0 0 0 0 0 0.25 0"/>
<feBlend mode="normal" in2="BackgroundImageFix" result="effect1_dropShadow_13_53"/>
<feBlend mode="normal" in="SourceGraphic" in2="effect1_dropShadow_13_53" result="shape"/>
</filter>
<clipPath id="clip0_13_53">
<rect width="114" height="114" fill="white" transform="translate(114.39 114) rotate(-180)"/>
</clipPath>
</defs>
</svg>
