<svg width="40" height="40" viewBox="0 0 85 85" fill="none" xmlns="http://www.w3.org/2000/svg">
<path d="M42.5 5.3125C34.7535 5.32164 27.3269 8.40297 21.8493 13.8806C16.3717 19.3582 13.2904 26.7848 13.2813 34.5312C13.272 40.8617 15.3398 47.0204 19.1675 52.0625C19.1675 52.0625 19.9644 53.1117 20.0945 53.2631L42.5 79.6875L64.9161 53.2498C65.033 53.1091 65.8325 52.0625 65.8325 52.0625L65.8352 52.0545C69.661 47.0146 71.7278 40.8588 71.7188 34.5312C71.7096 26.7848 68.6283 19.3582 63.1507 13.8806C57.6731 8.40297 50.2465 5.32164 42.5 5.3125ZM42.5 45.1562C40.3986 45.1562 38.3443 44.5331 36.5971 43.3656C34.8498 42.1981 33.488 40.5387 32.6838 38.5973C31.8796 36.6558 31.6692 34.5195 32.0792 32.4584C32.4891 30.3974 33.5011 28.5042 34.987 27.0182C36.4729 25.5323 38.3661 24.5204 40.4272 24.1104C42.4882 23.7004 44.6245 23.9108 46.566 24.715C48.5075 25.5192 50.1669 26.881 51.3344 28.6283C52.5019 30.3756 53.125 32.4298 53.125 34.5312C53.1215 37.3481 52.0009 40.0486 50.0091 42.0404C48.0173 44.0322 45.3168 45.1527 42.5 45.1562Z" fill="black"/>
</svg>
