<svg width="70" height="50" viewBox="0 0 132 131" fill="none" xmlns="http://www.w3.org/2000/svg">
<g filter="url(#filter0_d_13_43)">
<path d="M51.2444 67.75C51.2444 69.9215 50.3818 72.004 48.8464 73.5394C47.3109 75.0749 45.2284 75.9375 43.0569 75.9375C40.8855 75.9375 38.803 75.0749 37.2675 73.5394C35.7321 72.004 34.8694 69.9215 34.8694 67.75C34.8694 65.5785 35.7321 63.496 37.2675 61.9606C38.803 60.4251 40.8855 59.5625 43.0569 59.5625C45.2284 59.5625 47.3109 60.4251 48.8464 61.9606C50.3818 63.496 51.2444 65.5785 51.2444 67.75ZM29.4111 85.4896C29.4111 84.4039 29.8424 83.3626 30.6101 82.5949C31.3779 81.8271 32.4191 81.3958 33.5049 81.3958H52.609C53.6948 81.3958 54.736 81.8271 55.5037 82.5949C56.2715 83.3626 56.7028 84.4039 56.7028 85.4896V86.8542C56.7028 86.8542 56.7028 97.7708 43.0569 97.7708C29.4111 97.7708 29.4111 86.8542 29.4111 86.8542V85.4896ZM67.6194 68.4323C67.6194 66.5492 69.1478 65.0208 71.0309 65.0208H96.958C97.406 65.0208 97.8496 65.1091 98.2635 65.2805C98.6774 65.452 99.0535 65.7032 99.3702 66.02C99.687 66.3368 99.9383 66.7129 100.11 67.1268C100.281 67.5407 100.369 67.9843 100.369 68.4323C100.369 68.8803 100.281 69.3239 100.11 69.7378C99.9383 70.1517 99.687 70.5278 99.3702 70.8446C99.0535 71.1613 98.6774 71.4126 98.2635 71.5841C97.8496 71.7555 97.406 71.8438 96.958 71.8438H71.0309C69.1478 71.8438 67.6194 70.3154 67.6194 68.4323ZM71.0309 84.125C70.1261 84.125 69.2584 84.4844 68.6186 85.1242C67.9789 85.764 67.6194 86.6317 67.6194 87.5365C67.6194 88.4412 67.9789 89.309 68.6186 89.9487C69.2584 90.5885 70.1261 90.9479 71.0309 90.9479H96.958C97.8628 90.9479 98.7305 90.5885 99.3702 89.9487C100.01 89.309 100.369 88.4412 100.369 87.5365C100.369 86.6317 100.01 85.764 99.3702 85.1242C98.7305 84.4844 97.8628 84.125 96.958 84.125H71.0309ZM10.3069 46.599C10.3069 43.5227 11.529 40.5725 13.7042 38.3973C15.8794 36.222 18.8297 35 21.9059 35H107.875C110.951 35 113.901 36.222 116.076 38.3973C118.252 40.5725 119.474 43.5227 119.474 46.599V110.734C119.474 113.811 118.252 116.761 116.076 118.936C113.901 121.111 110.951 122.333 107.875 122.333H21.9059C18.8297 122.333 15.8794 121.111 13.7042 118.936C11.529 116.761 10.3069 113.811 10.3069 110.734V46.599ZM21.9059 41.8229C20.6392 41.8229 19.4244 42.3261 18.5287 43.2218C17.6331 44.1175 17.1299 45.3323 17.1299 46.599V110.734C17.1299 113.373 19.2695 115.51 21.9059 115.51H107.875C109.141 115.51 110.356 115.007 111.252 114.112C112.148 113.216 112.651 112.001 112.651 110.734V46.599C112.651 45.3323 112.148 44.1175 111.252 43.2218C110.356 42.3261 109.141 41.8229 107.875 41.8229H21.9059Z" fill="white"/>
</g>
<defs>
<filter id="filter0_d_13_43" x="6.30695" y="35" width="117.167" height="95.3335" filterUnits="userSpaceOnUse" color-interpolation-filters="sRGB">
<feFlood flood-opacity="0" result="BackgroundImageFix"/>
<feColorMatrix in="SourceAlpha" type="matrix" values="0 0 0 0 0 0 0 0 0 0 0 0 0 0 0 0 0 0 127 0" result="hardAlpha"/>
<feOffset dy="4"/>
<feGaussianBlur stdDeviation="2"/>
<feComposite in2="hardAlpha" operator="out"/>
<feColorMatrix type="matrix" values="0 0 0 0 0 0 0 0 0 0 0 0 0 0 0 0 0 0 0.25 0"/>
<feBlend mode="normal" in2="BackgroundImageFix" result="effect1_dropShadow_13_43"/>
<feBlend mode="normal" in="SourceGraphic" in2="effect1_dropShadow_13_43" result="shape"/>
</filter>
</defs>
</svg>
