<svg width="50" height="50" viewBox="0 0 85 85" fill="none" xmlns="http://www.w3.org/2000/svg">
<path d="M82.1185 68.4187L69.5081 55.8083C65.9683 52.2686 60.2291 52.2686 56.6892 55.8083L54.7163 57.7813C53.1285 59.3652 52.0253 61.369 51.5359 63.5576C47.2615 63.6375 42.4276 62.9107 38.2932 60.2284C35.7537 58.3407 33.3556 56.2699 31.1181 54.0325C29.228 52.1435 27.4557 50.1401 25.8113 48.0337C22.5891 43.7047 21.7387 38.4511 21.8247 33.8466C24.0134 33.3573 26.0172 32.2541 27.6011 30.6663L29.574 28.6934C33.1138 25.1536 33.1138 19.4144 29.574 15.8745L16.9636 3.26407C14.6037 0.904163 10.7776 0.904163 8.41782 3.26407L6.25281 5.42958C3.47736 8.20503 2.0566 11.8199 1.98272 15.4571C1.27201 23.1312 2.74175 31.579 6.23322 39.8876C8.53851 45.3734 11.7036 50.7299 15.5583 55.7087C15.607 55.7738 15.6531 55.8397 15.7024 55.9046L15.7081 55.9003C17.6761 58.4251 19.798 60.826 22.0616 63.0895C24.4011 65.4307 26.8868 67.6211 29.5036 69.6476L29.4784 69.6809C29.9144 70.0115 30.3591 70.3304 30.812 70.6374C41.8124 78.7738 54.2458 83.345 65.8159 83.3444C66.4917 83.3442 67.1654 83.3249 67.8355 83.2936C72.1451 83.8233 76.6451 82.4383 79.9533 79.1301L82.1186 76.9647C84.4784 74.6048 84.4784 70.7786 82.1185 68.4187Z" fill="#132028"/>
</svg>
