<svg width="40" height="40" viewBox="0 0 85 85" fill="none" xmlns="http://www.w3.org/2000/svg">
<path d="M42.5 18.5938C42.5 17.8893 42.2201 17.2136 41.722 16.7155C41.2239 16.2174 40.5482 15.9375 39.8438 15.9375C39.1393 15.9375 38.4636 16.2174 37.9655 16.7155C37.4674 17.2136 37.1875 17.8893 37.1875 18.5938V47.8125C37.1877 48.2807 37.3116 48.7405 37.5467 49.1454C37.7818 49.5503 38.1197 49.8859 38.5262 50.1181L57.12 60.7431C57.7302 61.0729 58.4452 61.1509 59.1121 60.9605C59.7791 60.7701 60.3451 60.3264 60.6892 59.7242C61.0333 59.122 61.1282 58.409 60.9537 57.7378C60.7791 57.0665 60.3489 56.4902 59.755 56.1319L42.5 46.2719V18.5938Z" fill="black"/>
<path d="M42.5 85C53.7717 85 64.5817 80.5223 72.552 72.552C80.5223 64.5817 85 53.7717 85 42.5C85 31.2283 80.5223 20.4183 72.552 12.448C64.5817 4.47767 53.7717 0 42.5 0C31.2283 0 20.4183 4.47767 12.448 12.448C4.47767 20.4183 0 31.2283 0 42.5C0 53.7717 4.47767 64.5817 12.448 72.552C20.4183 80.5223 31.2283 85 42.5 85ZM79.6875 42.5C79.6875 52.3627 75.7695 61.8215 68.7955 68.7955C61.8215 75.7695 52.3627 79.6875 42.5 79.6875C32.6373 79.6875 23.1785 75.7695 16.2045 68.7955C9.23046 61.8215 5.3125 52.3627 5.3125 42.5C5.3125 32.6373 9.23046 23.1785 16.2045 16.2045C23.1785 9.23046 32.6373 5.3125 42.5 5.3125C52.3627 5.3125 61.8215 9.23046 68.7955 16.2045C75.7695 23.1785 79.6875 32.6373 79.6875 42.5Z" fill="black"/>
</svg>
