<svg width="57" height="37" viewBox="0 0 57 37" fill="none" xmlns="http://www.w3.org/2000/svg">
<path fill-rule="evenodd" clip-rule="evenodd" d="M56.9375 18.5001C56.9375 19.0388 56.7235 19.5555 56.3426 19.9364C55.9616 20.3174 55.445 20.5314 54.9062 20.5314L6.99718 20.5314L19.7819 33.312C20.1633 33.6934 20.3776 34.2107 20.3776 34.7501C20.3776 35.2895 20.1633 35.8068 19.7819 36.1882C19.4005 36.5697 18.8832 36.7839 18.3438 36.7839C17.8043 36.7839 17.287 36.5697 16.9056 36.1882L0.655623 19.9383C0.46646 19.7496 0.316382 19.5254 0.21398 19.2786C0.111578 19.0319 0.0588668 18.7673 0.0588668 18.5001C0.0588668 18.2329 0.111578 17.9684 0.21398 17.7216C0.316382 17.4748 0.466459 17.2507 0.655623 17.062L16.9056 0.812C17.287 0.430584 17.8043 0.216308 18.3437 0.216308C18.8831 0.216308 19.4005 0.430583 19.7819 0.812C20.1633 1.19341 20.3776 1.71072 20.3776 2.25013C20.3776 2.78953 20.1633 3.30683 19.7819 3.68825L6.99718 16.4689L54.9062 16.4689C55.445 16.4689 55.9616 16.6829 56.3426 17.0638C56.7235 17.4447 56.9375 17.9614 56.9375 18.5001Z" fill="white"/>
</svg>
