<svg width="450" height="165" viewBox="0 0 514 165" fill="none" xmlns="http://www.w3.org/2000/svg">
<g filter="url(#filter0_d_8_15)">
<path d="M466 117.5C452.652 152.5 181.167 149.711 66 128.711C190.5 152.211 459.278 162.155 470.5 128.711C483.992 88.5015 503.5 94 503.5 94C503.5 94 479.348 82.5001 466 117.5Z" fill="white"/>
</g>
<g filter="url(#filter1_d_8_15)">
<path d="M489.679 28.9276C485.697 36.3869 476.422 39.2055 468.962 35.2232C461.503 31.2409 458.684 21.9656 462.667 14.5063C466.649 7.04696 475.924 4.22832 483.384 8.21065C490.843 12.193 493.662 21.4683 489.679 28.9276Z" fill="white"/>
</g>
<g filter="url(#filter2_d_8_15)">
<path d="M439.282 24.607C442.092 23.4205 445.839 23.0246 454.269 24.6074C441.155 26.9806 425.565 41.3768 427.106 36.4728C428.736 31.2826 433.663 26.98 439.282 24.607Z" fill="white"/>
</g>
<g filter="url(#filter3_d_8_15)">
<path d="M444.515 40.1843C446.588 37.9462 449.839 36.0431 458.173 34.0153C447.2 41.5763 438.918 61.1141 438.303 56.0107C437.652 50.6095 440.371 44.6603 444.515 40.1843Z" fill="white"/>
</g>
<g filter="url(#filter4_d_8_15)">
<path d="M459.366 52.3748C460.252 49.456 462.344 46.3233 468.954 40.8571C462.388 52.4537 463.479 73.6461 460.695 69.3247C457.749 64.7511 457.594 58.2121 459.366 52.3748Z" fill="white"/>
</g>
<g filter="url(#filter5_d_8_15)">
<path d="M479.582 55.1743C478.8 52.2261 478.932 48.4609 481.678 40.3353C482.195 53.6514 494.27 71.101 489.629 68.8901C484.718 66.5502 481.146 61.0706 479.582 55.1743Z" fill="white"/>
</g>
<g filter="url(#filter6_d_8_15)">
<path d="M60.7061 15.2637C60.5107 15.9473 60.3154 16.8262 60.1201 17.9004C59.9736 18.9258 59.8027 20.0732 59.6074 21.3428C63.1719 21.6357 66.8584 22.0264 70.667 22.5146C74.5244 23.0029 78.2842 23.6377 81.9463 24.4189C85.6084 25.1514 89.0996 26.0303 92.4199 27.0557C95.7891 28.0322 98.8164 29.1553 101.502 30.4248L100.916 31.8164C95.5449 31.1328 90.1738 30.6689 84.8027 30.4248C79.4805 30.1318 74.1582 29.9854 68.8359 29.9854C67.127 29.9854 65.3936 30.0342 63.6357 30.1318C61.9268 30.2295 60.1934 30.3271 58.4355 30.4248C58.0449 34.0381 57.6543 38.0664 57.2637 42.5098C56.873 46.9043 56.5068 51.543 56.165 56.4258C55.8721 61.3086 55.6035 66.3623 55.3594 71.5869C55.1641 76.7627 55.0176 81.9629 54.9199 87.1875C54.8223 92.3633 54.7979 97.4658 54.8467 102.495C54.9443 107.476 55.1396 112.236 55.4326 116.777C55.7256 121.27 56.1406 125.444 56.6777 129.302C57.2148 133.159 57.8984 136.504 58.7285 139.336C58.8262 139.775 58.9482 140.215 59.0947 140.654C59.29 141.143 59.3877 141.606 59.3877 142.046C59.3877 142.827 59.1924 143.438 58.8018 143.877C58.4111 144.365 57.8008 144.609 56.9707 144.609C55.8965 144.609 54.8223 144.316 53.748 143.73C52.7227 143.145 51.7949 142.583 50.9648 142.046C49.5 141.069 48.377 139.507 47.5957 137.358C46.8145 135.21 46.2529 132.891 45.9111 130.4C45.5693 127.91 45.374 125.469 45.3252 123.076C45.2764 120.684 45.252 118.706 45.252 117.144C45.252 113.433 45.3252 109.331 45.4717 104.839C45.667 100.347 45.9111 95.6348 46.2041 90.7031C46.5459 85.7227 46.9609 80.6201 47.4492 75.3955C47.9375 70.1221 48.5234 64.9219 49.207 59.7949C49.8906 54.6191 50.6475 49.5654 51.4775 44.6338C52.3564 39.7021 53.333 35.0635 54.4072 30.7178C50.7939 30.9619 47.1807 31.3037 43.5674 31.7432C40.0029 32.1338 36.5117 32.6221 33.0938 33.208C29.7246 33.7939 26.4775 34.4531 23.3525 35.1855C20.2764 35.8691 17.4199 36.6504 14.7832 37.5293C14.1973 37.8223 13.5625 37.9688 12.8789 37.9688C11.4629 37.9688 10.7549 37.2607 10.7549 35.8447C10.7549 34.8682 11.0234 33.8672 11.5605 32.8418C12.0977 31.8164 12.6348 30.9131 13.1719 30.1318C14.002 28.96 15.2471 27.9346 16.9072 27.0557C18.5186 26.1279 20.374 25.3223 22.4736 24.6387C24.6221 23.9062 26.8682 23.3203 29.2119 22.8809C31.6045 22.3926 33.9238 22.002 36.1699 21.709C38.416 21.3672 40.5156 21.1475 42.4688 21.0498C44.4707 20.9033 46.1064 20.8301 47.376 20.8301C48.8408 20.8301 50.3789 20.8789 51.9902 20.9766C53.6016 21.0254 55.2617 21.0986 56.9707 21.1963C57.752 18.7549 58.5576 16.582 59.3877 14.6777L60.7061 15.2637Z" fill="white"/>
<path d="M126.478 109.526C125.599 111.479 124.476 113.237 123.108 114.8C121.79 116.362 120.35 117.705 118.787 118.828C117.225 119.902 115.613 120.732 113.953 121.318C112.293 121.953 110.706 122.271 109.192 122.271C106.36 122.271 103.968 121.782 102.015 120.806C100.062 119.829 98.4746 118.511 97.2539 116.851C96.0332 115.19 95.1543 113.237 94.6172 110.991C94.0801 108.745 93.8115 106.353 93.8115 103.813C93.8115 101.86 93.958 99.834 94.251 97.7344C94.5439 95.6348 94.959 93.6084 95.4961 91.6553C95.5938 91.3623 95.6914 91.0205 95.7891 90.6299C95.8867 90.1904 95.9355 89.8242 95.9355 89.5312C95.9355 89.2871 95.7891 89.0918 95.4961 88.9453C94.666 88.6523 93.7871 88.3838 92.8594 88.1396C91.9316 87.8467 91.0039 87.5293 90.0762 87.1875C89.1973 86.8457 88.3428 86.4551 87.5127 86.0156C86.7314 85.5762 86.0479 85.0146 85.4619 84.3311C85.4131 87.2607 84.9248 90.2393 83.9971 93.2666C83.0693 96.2451 81.8242 99.126 80.2617 101.909C78.748 104.644 76.9658 107.207 74.915 109.6C72.8643 111.992 70.6914 114.067 68.3965 115.825L67.6641 115.093C69.0801 113.53 70.374 111.675 71.5459 109.526C72.7178 107.378 73.7188 105.132 74.5488 102.788C75.3789 100.444 76.0137 98.0762 76.4531 95.6836C76.9414 93.291 77.1855 91.0449 77.1855 88.9453C77.1855 87.8711 77.0879 86.8701 76.8926 85.9424C76.6973 84.9658 76.4775 84.0381 76.2334 83.1592C76.0381 82.2803 75.8428 81.4502 75.6475 80.6689C75.4521 79.8389 75.3545 79.0088 75.3545 78.1787C75.3545 76.8115 75.7939 75.7373 76.6729 74.9561C77.5518 74.1748 78.6748 73.7842 80.042 73.7842C80.7744 73.7842 81.3359 74.0039 81.7266 74.4434C82.1172 74.834 82.459 75.3223 82.752 75.9082C83.0449 76.4941 83.3867 77.1045 83.7773 77.7393C84.168 78.374 84.7295 78.9111 85.4619 79.3506C86.3896 79.8877 87.5615 80.2783 88.9775 80.5225C90.3936 80.7666 91.8828 80.9863 93.4453 81.1816C95.0078 81.377 96.5703 81.5723 98.1328 81.7676C99.6953 81.9629 101.087 82.3047 102.308 82.793C103.577 83.2324 104.603 83.8672 105.384 84.6973C106.165 85.4785 106.556 86.5527 106.556 87.9199C106.556 88.6035 106.482 89.2871 106.336 89.9707C106.238 90.6055 106.067 91.2158 105.823 91.8018C105.237 93.8525 104.725 95.9521 104.285 98.1006C103.895 100.2 103.699 102.3 103.699 104.399C103.699 106.206 103.821 107.866 104.065 109.38C104.358 110.845 104.871 112.114 105.604 113.188C106.336 114.263 107.312 115.093 108.533 115.679C109.754 116.265 111.316 116.558 113.221 116.558C115.955 116.558 118.348 115.898 120.398 114.58C122.449 113.213 124.256 111.431 125.818 109.233L126.478 109.526Z" fill="white"/>
<path d="M155.921 81.6211C155.921 82.1582 155.726 82.6465 155.335 83.0859C154.944 83.4766 154.48 83.6719 153.943 83.6719C153.504 83.6719 153.04 83.5498 152.552 83.3057C152.063 83.0127 151.502 82.6953 150.867 82.3535C150.281 82.0117 149.573 81.7188 148.743 81.4746C147.962 81.1816 147.059 81.0352 146.033 81.0352C143.641 81.0352 141.492 81.792 139.588 83.3057C137.732 84.7705 136.146 86.6016 134.827 88.7988C133.558 90.9961 132.581 93.3398 131.897 95.8301C131.214 98.3203 130.872 100.566 130.872 102.568C130.872 103.984 130.994 105.376 131.238 106.743C131.482 108.062 131.897 109.282 132.483 110.405C133.118 111.479 133.973 112.358 135.047 113.042C136.121 113.677 137.488 113.994 139.148 113.994C140.906 113.994 142.591 113.677 144.202 113.042C145.813 112.358 147.327 111.479 148.743 110.405C148.792 108.843 149.036 107.207 149.476 105.498C149.964 103.74 150.574 102.031 151.307 100.371C152.039 98.6621 152.869 97.0508 153.797 95.5371C154.773 94.0234 155.774 92.6807 156.8 91.5088L157.752 92.0947C157.215 93.7549 156.824 95.4639 156.58 97.2217C156.336 98.9795 156.214 100.713 156.214 102.422C156.214 104.18 156.36 105.84 156.653 107.402C156.946 108.965 157.459 110.332 158.191 111.504C158.924 112.627 159.925 113.53 161.194 114.214C162.464 114.849 164.1 115.166 166.102 115.166C168.543 115.166 170.789 114.604 172.84 113.481C174.891 112.358 176.697 110.942 178.26 109.233L178.846 109.526C177.967 111.235 176.819 112.871 175.403 114.434C173.987 115.996 172.4 117.412 170.643 118.682C168.934 119.902 167.103 120.879 165.149 121.611C163.196 122.344 161.268 122.71 159.363 122.71C156.678 122.71 154.48 121.929 152.771 120.366C151.062 118.853 149.891 116.924 149.256 114.58C147.205 116.631 144.91 118.364 142.371 119.78C139.881 121.147 137.244 121.831 134.461 121.831C132.41 121.831 130.579 121.44 128.968 120.659C127.405 119.927 126.087 118.926 125.013 117.656C123.938 116.387 123.108 114.897 122.522 113.188C121.985 111.431 121.717 109.6 121.717 107.695C121.717 105.498 122.059 103.252 122.742 100.957C123.475 98.6133 124.451 96.3184 125.672 94.0723C126.941 91.8262 128.431 89.7021 130.14 87.7002C131.849 85.6982 133.704 83.9404 135.706 82.4268C137.757 80.9131 139.905 79.7168 142.151 78.8379C144.397 77.959 146.692 77.5195 149.036 77.5195C149.573 77.5195 150.232 77.5928 151.014 77.7393C151.795 77.8369 152.552 78.0322 153.284 78.3252C154.017 78.6182 154.627 79.0332 155.115 79.5703C155.652 80.1074 155.921 80.791 155.921 81.6211Z" fill="white"/>
<path d="M261.976 109.526C261.097 111.284 260.047 112.993 258.826 114.653C257.605 116.265 256.238 117.705 254.725 118.975C253.211 120.244 251.526 121.245 249.671 121.978C247.864 122.759 245.887 123.149 243.738 123.149C240.711 123.149 238.245 122.124 236.341 120.073C234.437 118.022 232.874 115.361 231.653 112.09C230.481 108.77 229.554 105.034 228.87 100.884C228.187 96.6846 227.601 92.4609 227.112 88.2129C225.989 90.2148 224.939 92.3145 223.963 94.5117C223.035 96.6602 222.132 98.9307 221.253 101.323C220.374 103.716 219.495 106.182 218.616 108.721C217.737 111.26 216.785 113.872 215.76 116.558C215.516 117.144 215.247 117.803 214.954 118.535C214.661 119.219 214.271 119.878 213.782 120.513C213.343 121.196 212.806 121.758 212.171 122.197C211.536 122.637 210.779 122.856 209.9 122.856C209.266 122.856 208.704 122.71 208.216 122.417C207.728 122.124 207.288 121.758 206.897 121.318C206.556 120.928 206.238 120.488 205.945 120C205.701 119.463 205.481 118.975 205.286 118.535C204.31 116.338 203.528 114.092 202.942 111.797C202.356 109.502 201.844 107.134 201.404 104.692C201.014 102.251 200.672 99.6631 200.379 96.9287C200.086 94.1943 199.793 91.2891 199.5 88.2129C198.475 90.6055 197.547 92.9004 196.717 95.0977C195.936 97.2461 195.154 99.4189 194.373 101.616C193.641 103.765 192.884 106.011 192.103 108.354C191.37 110.649 190.589 113.14 189.759 115.825C189.563 116.46 189.344 117.144 189.1 117.876C188.904 118.56 188.636 119.194 188.294 119.78C188.001 120.366 187.586 120.854 187.049 121.245C186.561 121.636 185.926 121.831 185.145 121.831C183.875 121.831 182.947 121.416 182.361 120.586C181.775 119.805 181.287 118.877 180.896 117.803C180.311 116.338 179.749 114.312 179.212 111.724C178.675 109.087 178.187 106.23 177.747 103.154C177.308 100.078 176.966 96.9043 176.722 93.6328C176.478 90.3613 176.355 87.3096 176.355 84.4775C176.355 81.7432 177.088 79.7412 178.553 78.4717C180.018 77.1533 181.946 76.4941 184.339 76.4941C184.485 76.4941 184.705 76.4941 184.998 76.4941C185.291 76.4941 185.584 76.543 185.877 76.6406C186.17 76.6895 186.414 76.7871 186.609 76.9336C186.854 77.0801 186.951 77.2754 186.902 77.5195C186.463 80.9375 186.17 84.1846 186.023 87.2607C185.877 90.3369 185.828 93.3398 185.877 96.2695C185.926 99.1504 186.072 102.007 186.316 104.839C186.609 107.622 186.976 110.479 187.415 113.408C188.245 110.625 189.051 107.964 189.832 105.425C190.662 102.886 191.517 100.371 192.396 97.8809C193.274 95.3906 194.202 92.876 195.179 90.3369C196.204 87.749 197.303 85.0391 198.475 82.207C199.109 80.7422 199.769 79.7168 200.452 79.1309C201.185 78.5449 202.112 78.252 203.235 78.252C204.651 78.252 205.75 78.7891 206.531 79.8633C207.361 80.9375 207.898 82.1582 208.143 83.5254C208.533 86.0156 208.875 88.5791 209.168 91.2158C209.461 93.8037 209.778 96.416 210.12 99.0527C210.462 101.689 210.877 104.302 211.365 106.89C211.854 109.429 212.488 111.895 213.27 114.287C214.246 111.748 215.223 109.111 216.199 106.377C217.176 103.594 218.177 100.811 219.202 98.0273C220.228 95.2441 221.302 92.5098 222.425 89.8242C223.597 87.1387 224.842 84.5996 226.16 82.207C226.795 81.084 227.503 80.1562 228.284 79.4238C229.114 78.6426 230.14 78.252 231.36 78.252C232.044 78.252 232.654 78.4229 233.191 78.7646C233.729 79.0576 234.192 79.4727 234.583 80.0098C234.974 80.498 235.291 81.0596 235.535 81.6943C235.779 82.2803 235.95 82.8906 236.048 83.5254C236.292 84.9414 236.512 86.7725 236.707 89.0186C236.951 91.2646 237.244 93.6572 237.586 96.1963C237.977 98.7354 238.44 101.299 238.978 103.887C239.515 106.426 240.198 108.745 241.028 110.845C241.858 112.896 242.859 114.58 244.031 115.898C245.203 117.217 246.619 117.876 248.279 117.876C249.646 117.876 250.965 117.632 252.234 117.144C253.504 116.606 254.7 115.947 255.823 115.166C256.946 114.336 257.972 113.408 258.899 112.383C259.876 111.309 260.755 110.259 261.536 109.233L261.976 109.526Z" fill="white"/>
<path d="M301.307 98.3936C301.307 101.812 300.745 104.985 299.622 107.915C298.499 110.845 296.912 113.384 294.861 115.532C292.811 117.681 290.345 119.365 287.464 120.586C284.632 121.807 281.482 122.417 278.016 122.417C274.939 122.417 272.156 121.831 269.666 120.659C267.225 119.536 265.125 117.998 263.367 116.045C261.609 114.092 260.267 111.821 259.339 109.233C258.411 106.597 257.947 103.789 257.947 100.811C257.947 98.3203 258.289 95.9521 258.973 93.7061C259.705 91.46 260.706 89.3848 261.976 87.4805C263.245 85.5273 264.759 83.7451 266.517 82.1338C268.274 80.4736 270.179 78.9844 272.229 77.666L273.108 78.3252C271.058 80.7178 269.446 83.3545 268.274 86.2354C267.103 89.1162 266.517 92.168 266.517 95.3906C266.517 97.7344 266.858 100.127 267.542 102.568C268.274 104.961 269.324 107.158 270.691 109.16C272.059 111.162 273.768 112.798 275.818 114.067C277.869 115.337 280.213 115.972 282.85 115.972C284.51 115.972 286.072 115.63 287.537 114.946C289.002 114.263 290.271 113.335 291.346 112.163C292.469 110.991 293.348 109.673 293.982 108.208C294.666 106.694 295.008 105.132 295.008 103.521C295.008 101.958 294.764 100.444 294.275 98.9795C293.836 97.4658 293.201 96.0742 292.371 94.8047C291.541 93.4863 290.54 92.3145 289.368 91.2891C288.196 90.2148 286.927 89.3359 285.56 88.6523C284.778 88.2617 284.021 87.9688 283.289 87.7734C282.605 87.5781 281.849 87.3584 281.019 87.1143C280.677 87.0654 280.311 86.9922 279.92 86.8945C279.529 86.748 279.163 86.6016 278.821 86.4551C278.479 86.2598 278.187 86.0156 277.942 85.7227C277.698 85.4297 277.576 85.0635 277.576 84.624C277.576 83.7451 277.894 82.9395 278.528 82.207C279.163 81.4746 279.92 80.8398 280.799 80.3027C281.678 79.7168 282.605 79.2773 283.582 78.9844C284.559 78.6426 285.413 78.4717 286.146 78.4717C288.636 78.4717 290.833 79.1064 292.737 80.376C294.642 81.6455 296.229 83.2568 297.498 85.21C298.768 87.1631 299.72 89.3115 300.354 91.6553C300.989 93.999 301.307 96.2451 301.307 98.3936Z" fill="white"/>
<path d="M370.887 109.526C369.959 111.284 368.958 112.969 367.884 114.58C366.858 116.191 365.687 117.607 364.368 118.828C363.05 120.049 361.561 121.025 359.9 121.758C358.24 122.49 356.336 122.856 354.188 122.856C351.746 122.856 349.646 122.246 347.889 121.025C346.131 119.854 344.617 118.291 343.348 116.338C342.127 114.336 341.126 112.065 340.345 109.526C339.612 106.987 339.002 104.399 338.514 101.763C338.025 99.126 337.659 96.5381 337.415 93.999C337.171 91.4111 336.951 89.0918 336.756 87.041C335.828 87.7734 334.705 89.1895 333.387 91.2891C332.068 93.3398 330.726 95.7568 329.358 98.54C327.991 101.323 326.673 104.351 325.403 107.622C324.183 110.894 323.182 114.116 322.4 117.29C322.254 117.974 322.01 118.682 321.668 119.414C321.375 120.146 320.984 120.806 320.496 121.392C320.057 122.026 319.52 122.539 318.885 122.93C318.25 123.369 317.542 123.589 316.761 123.589C315.491 123.589 314.563 123.149 313.978 122.271C313.44 121.392 313.05 120.391 312.806 119.268C311.39 113.066 310.389 107.134 309.803 101.47C309.266 95.8057 308.997 90.1416 308.997 84.4775C308.997 83.1104 309.217 81.9385 309.656 80.9619C310.145 79.9365 310.779 79.1064 311.561 78.4717C312.342 77.7881 313.27 77.2998 314.344 77.0068C315.418 76.665 316.541 76.4941 317.713 76.4941C317.859 76.4941 318.079 76.4941 318.372 76.4941C318.714 76.4941 319.031 76.543 319.324 76.6406C319.617 76.6895 319.861 76.7871 320.057 76.9336C320.252 77.0801 320.325 77.2754 320.276 77.5195C319.007 83.916 318.396 90.4346 318.445 97.0752C318.494 103.667 318.836 110.015 319.471 116.118C320.008 113.677 320.789 110.918 321.814 107.842C322.889 104.717 324.109 101.592 325.477 98.4668C326.893 95.293 328.406 92.29 330.018 89.458C331.678 86.5771 333.362 84.1602 335.071 82.207C335.901 81.2793 336.731 80.498 337.562 79.8633C338.44 79.1797 339.515 78.8379 340.784 78.8379C341.517 78.8379 342.127 78.9844 342.615 79.2773C343.104 79.5703 343.494 79.9365 343.787 80.376C344.129 80.8154 344.373 81.3281 344.52 81.9141C344.715 82.4512 344.861 82.9883 344.959 83.5254C345.203 84.9414 345.447 86.7725 345.691 89.0186C345.936 91.2646 346.229 93.6572 346.57 96.1963C346.961 98.7354 347.425 101.299 347.962 103.887C348.499 106.426 349.183 108.745 350.013 110.845C350.843 112.896 351.844 114.58 353.016 115.898C354.188 117.217 355.579 117.876 357.19 117.876C358.509 117.876 359.778 117.632 360.999 117.144C362.269 116.606 363.465 115.947 364.588 115.166C365.711 114.336 366.761 113.408 367.737 112.383C368.714 111.309 369.593 110.259 370.374 109.233L370.887 109.526Z" fill="white"/>
<path d="M414.319 109.526C413.245 111.333 411.976 113.018 410.511 114.58C409.095 116.143 407.508 117.51 405.75 118.682C404.041 119.854 402.186 120.757 400.184 121.392C398.182 122.075 396.106 122.417 393.958 122.417C390.784 122.417 387.977 121.88 385.535 120.806C383.143 119.731 381.067 118.291 379.31 116.484C377.552 114.629 376.087 112.48 374.915 110.039C373.743 107.598 372.815 105.059 372.132 102.422C371.448 99.7363 370.96 97.002 370.667 94.2188C370.374 91.4355 370.228 88.7744 370.228 86.2354C370.228 83.8916 370.325 81.499 370.521 79.0576C370.716 76.5674 371.009 74.0283 371.399 71.4404C369.886 71.4893 368.396 71.5137 366.932 71.5137C365.516 71.5137 364.1 71.5137 362.684 71.5137C361.756 71.5137 360.706 71.4893 359.534 71.4404C358.362 71.3916 357.264 71.1963 356.238 70.8545C355.213 70.5127 354.358 70 353.675 69.3164C352.991 68.6328 352.649 67.6318 352.649 66.3135C352.649 65.5811 352.796 64.9951 353.089 64.5557C353.333 64.1162 353.699 63.7988 354.188 63.6035C354.627 63.3594 355.164 63.2129 355.799 63.1641C356.385 63.0664 356.995 63.0176 357.63 63.0176C358.362 63.0176 360.096 63.1396 362.83 63.3838C365.564 63.6279 368.86 63.8965 372.718 64.1895C373.938 58.4277 375.501 52.7637 377.405 47.1973C379.358 41.6309 381.556 36.5527 383.997 31.9629H385.022C383.46 37.2852 382.068 42.6562 380.848 48.0762C379.676 53.4961 378.797 58.9893 378.211 64.5557C381.775 64.7998 385.438 65.0195 389.197 65.2148C393.006 65.3613 396.717 65.4346 400.33 65.4346C405.652 65.4346 409.974 65.3857 413.294 65.2881C416.614 65.1904 419.227 65.0684 421.131 64.9219C423.377 64.7266 425.062 64.5312 426.185 64.3359L426.478 65.5811C423.548 66.2646 420.203 66.9238 416.443 67.5586C412.684 68.1445 408.68 68.6816 404.432 69.1699C400.184 69.6094 395.789 70 391.248 70.3418C386.707 70.6836 382.19 70.9521 377.698 71.1475C377.601 72.124 377.552 73.125 377.552 74.1504C377.552 75.127 377.552 76.1035 377.552 77.0801C377.552 79.4238 377.649 82.0117 377.845 84.8438C378.089 87.6758 378.504 90.5322 379.09 93.4131C379.676 96.2451 380.457 99.0283 381.434 101.763C382.459 104.448 383.777 106.841 385.389 108.94C387.049 110.991 389.026 112.651 391.321 113.921C393.616 115.19 396.326 115.825 399.451 115.825C402.332 115.825 404.92 115.19 407.215 113.921C409.559 112.651 411.78 111.089 413.88 109.233L414.319 109.526Z" fill="white"/>
<path d="M452.625 98.3936C452.625 101.812 452.063 104.985 450.94 107.915C449.817 110.845 448.23 113.384 446.18 115.532C444.129 117.681 441.663 119.365 438.782 120.586C435.95 121.807 432.801 122.417 429.334 122.417C426.258 122.417 423.475 121.831 420.984 120.659C418.543 119.536 416.443 117.998 414.686 116.045C412.928 114.092 411.585 111.821 410.657 109.233C409.729 106.597 409.266 103.789 409.266 100.811C409.266 98.3203 409.607 95.9521 410.291 93.7061C411.023 91.46 412.024 89.3848 413.294 87.4805C414.563 85.5273 416.077 83.7451 417.835 82.1338C419.593 80.4736 421.497 78.9844 423.548 77.666L424.427 78.3252C422.376 80.7178 420.765 83.3545 419.593 86.2354C418.421 89.1162 417.835 92.168 417.835 95.3906C417.835 97.7344 418.177 100.127 418.86 102.568C419.593 104.961 420.643 107.158 422.01 109.16C423.377 111.162 425.086 112.798 427.137 114.067C429.188 115.337 431.531 115.972 434.168 115.972C435.828 115.972 437.391 115.63 438.855 114.946C440.32 114.263 441.59 113.335 442.664 112.163C443.787 110.991 444.666 109.673 445.301 108.208C445.984 106.694 446.326 105.132 446.326 103.521C446.326 101.958 446.082 100.444 445.594 98.9795C445.154 97.4658 444.52 96.0742 443.689 94.8047C442.859 93.4863 441.858 92.3145 440.687 91.2891C439.515 90.2148 438.245 89.3359 436.878 88.6523C436.097 88.2617 435.34 87.9688 434.607 87.7734C433.924 87.5781 433.167 87.3584 432.337 87.1143C431.995 87.0654 431.629 86.9922 431.238 86.8945C430.848 86.748 430.481 86.6016 430.14 86.4551C429.798 86.2598 429.505 86.0156 429.261 85.7227C429.017 85.4297 428.895 85.0635 428.895 84.624C428.895 83.7451 429.212 82.9395 429.847 82.207C430.481 81.4746 431.238 80.8398 432.117 80.3027C432.996 79.7168 433.924 79.2773 434.9 78.9844C435.877 78.6426 436.731 78.4717 437.464 78.4717C439.954 78.4717 442.151 79.1064 444.056 80.376C445.96 81.6455 447.547 83.2568 448.816 85.21C450.086 87.1631 451.038 89.3115 451.673 91.6553C452.308 93.999 452.625 96.2451 452.625 98.3936Z" fill="white"/>
</g>
<defs>
<filter id="filter0_d_8_15" x="56" y="86.1917" width="457.5" height="78.0337" filterUnits="userSpaceOnUse" color-interpolation-filters="sRGB">
<feFlood flood-opacity="0" result="BackgroundImageFix"/>
<feColorMatrix in="SourceAlpha" type="matrix" values="0 0 0 0 0 0 0 0 0 0 0 0 0 0 0 0 0 0 127 0" result="hardAlpha"/>
<feOffset dy="4"/>
<feGaussianBlur stdDeviation="5"/>
<feComposite in2="hardAlpha" operator="out"/>
<feColorMatrix type="matrix" values="0 0 0 0 0 0 0 0 0 0 0 0 0 0 0 0 0 0 0.25 0"/>
<feBlend mode="normal" in2="BackgroundImageFix" result="effect1_dropShadow_8_15"/>
<feBlend mode="normal" in="SourceGraphic" in2="effect1_dropShadow_8_15" result="shape"/>
</filter>
<filter id="filter1_d_8_15" x="450.859" y="0.40332" width="50.6271" height="50.6272" filterUnits="userSpaceOnUse" color-interpolation-filters="sRGB">
<feFlood flood-opacity="0" result="BackgroundImageFix"/>
<feColorMatrix in="SourceAlpha" type="matrix" values="0 0 0 0 0 0 0 0 0 0 0 0 0 0 0 0 0 0 127 0" result="hardAlpha"/>
<feOffset dy="4"/>
<feGaussianBlur stdDeviation="5"/>
<feComposite in2="hardAlpha" operator="out"/>
<feColorMatrix type="matrix" values="0 0 0 0 0 0 0 0 0 0 0 0 0 0 0 0 0 0 0.25 0"/>
<feBlend mode="normal" in2="BackgroundImageFix" result="effect1_dropShadow_8_15"/>
<feBlend mode="normal" in="SourceGraphic" in2="effect1_dropShadow_8_15" result="shape"/>
</filter>
<filter id="filter2_d_8_15" x="417" y="17.5635" width="47.2686" height="33.9207" filterUnits="userSpaceOnUse" color-interpolation-filters="sRGB">
<feFlood flood-opacity="0" result="BackgroundImageFix"/>
<feColorMatrix in="SourceAlpha" type="matrix" values="0 0 0 0 0 0 0 0 0 0 0 0 0 0 0 0 0 0 127 0" result="hardAlpha"/>
<feOffset dy="4"/>
<feGaussianBlur stdDeviation="5"/>
<feComposite in2="hardAlpha" operator="out"/>
<feColorMatrix type="matrix" values="0 0 0 0 0 0 0 0 0 0 0 0 0 0 0 0 0 0 0.25 0"/>
<feBlend mode="normal" in2="BackgroundImageFix" result="effect1_dropShadow_8_15"/>
<feBlend mode="normal" in="SourceGraphic" in2="effect1_dropShadow_8_15" result="shape"/>
</filter>
<filter id="filter3_d_8_15" x="428.207" y="28.0151" width="39.9658" height="42.8345" filterUnits="userSpaceOnUse" color-interpolation-filters="sRGB">
<feFlood flood-opacity="0" result="BackgroundImageFix"/>
<feColorMatrix in="SourceAlpha" type="matrix" values="0 0 0 0 0 0 0 0 0 0 0 0 0 0 0 0 0 0 127 0" result="hardAlpha"/>
<feOffset dy="4"/>
<feGaussianBlur stdDeviation="5"/>
<feComposite in2="hardAlpha" operator="out"/>
<feColorMatrix type="matrix" values="0 0 0 0 0 0 0 0 0 0 0 0 0 0 0 0 0 0 0.25 0"/>
<feBlend mode="normal" in2="BackgroundImageFix" result="effect1_dropShadow_8_15"/>
<feBlend mode="normal" in="SourceGraphic" in2="effect1_dropShadow_8_15" result="shape"/>
</filter>
<filter id="filter4_d_8_15" x="448.217" y="34.8572" width="30.7366" height="49.0398" filterUnits="userSpaceOnUse" color-interpolation-filters="sRGB">
<feFlood flood-opacity="0" result="BackgroundImageFix"/>
<feColorMatrix in="SourceAlpha" type="matrix" values="0 0 0 0 0 0 0 0 0 0 0 0 0 0 0 0 0 0 127 0" result="hardAlpha"/>
<feOffset dy="4"/>
<feGaussianBlur stdDeviation="5"/>
<feComposite in2="hardAlpha" operator="out"/>
<feColorMatrix type="matrix" values="0 0 0 0 0 0 0 0 0 0 0 0 0 0 0 0 0 0 0.25 0"/>
<feBlend mode="normal" in2="BackgroundImageFix" result="effect1_dropShadow_8_15"/>
<feBlend mode="normal" in="SourceGraphic" in2="effect1_dropShadow_8_15" result="shape"/>
</filter>
<filter id="filter5_d_8_15" x="469.168" y="34.3354" width="31.5211" height="48.7456" filterUnits="userSpaceOnUse" color-interpolation-filters="sRGB">
<feFlood flood-opacity="0" result="BackgroundImageFix"/>
<feColorMatrix in="SourceAlpha" type="matrix" values="0 0 0 0 0 0 0 0 0 0 0 0 0 0 0 0 0 0 127 0" result="hardAlpha"/>
<feOffset dy="4"/>
<feGaussianBlur stdDeviation="5"/>
<feComposite in2="hardAlpha" operator="out"/>
<feColorMatrix type="matrix" values="0 0 0 0 0 0 0 0 0 0 0 0 0 0 0 0 0 0 0.25 0"/>
<feBlend mode="normal" in2="BackgroundImageFix" result="effect1_dropShadow_8_15"/>
<feBlend mode="normal" in="SourceGraphic" in2="effect1_dropShadow_8_15" result="shape"/>
</filter>
<filter id="filter6_d_8_15" x="0.754883" y="8.67773" width="461.87" height="149.932" filterUnits="userSpaceOnUse" color-interpolation-filters="sRGB">
<feFlood flood-opacity="0" result="BackgroundImageFix"/>
<feColorMatrix in="SourceAlpha" type="matrix" values="0 0 0 0 0 0 0 0 0 0 0 0 0 0 0 0 0 0 127 0" result="hardAlpha"/>
<feOffset dy="4"/>
<feGaussianBlur stdDeviation="5"/>
<feComposite in2="hardAlpha" operator="out"/>
<feColorMatrix type="matrix" values="0 0 0 0 0 0 0 0 0 0 0 0 0 0 0 0 0 0 0.55 0"/>
<feBlend mode="normal" in2="BackgroundImageFix" result="effect1_dropShadow_8_15"/>
<feBlend mode="normal" in="SourceGraphic" in2="effect1_dropShadow_8_15" result="shape"/>
</filter>
</defs>
</svg>
