<svg width="640" height="182" viewBox="0 0 640 182" fill="none" xmlns="http://www.w3.org/2000/svg">
<g filter="url(#filter0_d_19_180)">
<path d="M476.686 88.6997C468.387 110.411 299.601 108.681 228 95.6538C305.403 110.232 472.506 116.401 479.483 95.6538C487.872 70.7109 500 74.1218 500 74.1218C500 74.1218 484.984 66.988 476.686 88.6997Z" fill="white"/>
</g>
<g filter="url(#filter1_d_19_180)">
<circle cx="484.605" cy="27.0007" r="11.0861" transform="rotate(28.0966 484.605 27.0007)" fill="white"/>
</g>
<g filter="url(#filter2_d_19_180)">
<path d="M457.893 29.0935C459.928 28.2344 462.641 27.9477 468.745 29.0937C459.25 30.8121 447.961 41.2362 449.077 37.6853C450.257 33.9272 453.824 30.8117 457.893 29.0935Z" fill="white"/>
</g>
<g filter="url(#filter3_d_19_180)">
<path d="M461.683 40.3727C463.183 38.7521 465.537 37.3741 471.572 35.9058C463.626 41.3806 457.63 55.5275 457.184 51.8323C456.713 47.9214 458.682 43.6137 461.683 40.3727Z" fill="white"/>
</g>
<g filter="url(#filter4_d_19_180)">
<path d="M472.435 49.1995C473.077 47.0861 474.592 44.8177 479.378 40.8598C474.624 49.2566 475.413 64.6016 473.398 61.4726C471.265 58.161 471.153 53.4262 472.435 49.1995Z" fill="white"/>
</g>
<g filter="url(#filter5_d_19_180)">
<path d="M487.074 51.2265C486.508 49.0918 486.603 46.3655 488.591 40.4819C488.965 50.1238 497.709 62.7588 494.349 61.1579C490.793 59.4636 488.206 55.4959 487.074 51.2265Z" fill="white"/>
</g>
<g filter="url(#filter6_d_19_180)">
<path d="M201.471 19.1758C201.34 19.6315 201.21 20.2174 201.08 20.9336C200.982 21.6172 200.868 22.3822 200.738 23.2285C203.115 23.4238 205.572 23.6842 208.111 24.0098C210.683 24.3353 213.189 24.7585 215.631 25.2793C218.072 25.7676 220.4 26.3535 222.613 27.0371C224.859 27.6882 226.878 28.4368 228.668 29.2832L228.277 30.2109C224.697 29.7552 221.116 29.446 217.535 29.2832C213.987 29.0879 210.439 28.9902 206.891 28.9902C205.751 28.9902 204.596 29.0228 203.424 29.0879C202.285 29.153 201.129 29.2181 199.957 29.2832C199.697 31.6921 199.436 34.3776 199.176 37.3398C198.915 40.2695 198.671 43.362 198.443 46.6172C198.248 49.8724 198.069 53.2415 197.906 56.7246C197.776 60.1751 197.678 63.6419 197.613 67.125C197.548 70.5755 197.532 73.9772 197.564 77.3301C197.63 80.6504 197.76 83.8242 197.955 86.8516C198.15 89.8464 198.427 92.6296 198.785 95.2012C199.143 97.7728 199.599 100.003 200.152 101.891C200.217 102.184 200.299 102.477 200.396 102.77C200.527 103.095 200.592 103.404 200.592 103.697C200.592 104.218 200.462 104.625 200.201 104.918C199.941 105.243 199.534 105.406 198.98 105.406C198.264 105.406 197.548 105.211 196.832 104.82C196.148 104.43 195.53 104.055 194.977 103.697C194 103.046 193.251 102.005 192.73 100.572C192.21 99.14 191.835 97.5938 191.607 95.9336C191.38 94.2734 191.249 92.6458 191.217 91.0508C191.184 89.4557 191.168 88.1374 191.168 87.0957C191.168 84.6217 191.217 81.8874 191.314 78.8926C191.445 75.8978 191.607 72.7565 191.803 69.4688C192.031 66.1484 192.307 62.7467 192.633 59.2637C192.958 55.748 193.349 52.2812 193.805 48.8633C194.26 45.4128 194.765 42.0436 195.318 38.7559C195.904 35.4681 196.555 32.3757 197.271 29.4785C194.863 29.6413 192.454 29.8691 190.045 30.1621C187.669 30.4225 185.341 30.748 183.062 31.1387C180.816 31.5293 178.652 31.9688 176.568 32.457C174.518 32.9128 172.613 33.4336 170.855 34.0195C170.465 34.2148 170.042 34.3125 169.586 34.3125C168.642 34.3125 168.17 33.8405 168.17 32.8965C168.17 32.2454 168.349 31.5781 168.707 30.8945C169.065 30.2109 169.423 29.6087 169.781 29.0879C170.335 28.3066 171.165 27.623 172.271 27.0371C173.346 26.4186 174.583 25.8815 175.982 25.4258C177.415 24.9375 178.912 24.5469 180.475 24.2539C182.07 23.9284 183.616 23.668 185.113 23.4727C186.611 23.2448 188.01 23.0983 189.312 23.0332C190.647 22.9355 191.738 22.8867 192.584 22.8867C193.561 22.8867 194.586 22.9193 195.66 22.9844C196.734 23.0169 197.841 23.0658 198.98 23.1309C199.501 21.5033 200.038 20.0547 200.592 18.7852L201.471 19.1758ZM245.318 82.0176C244.732 83.3197 243.984 84.4915 243.072 85.5332C242.193 86.5749 241.233 87.4701 240.191 88.2188C239.15 88.9349 238.076 89.4883 236.969 89.8789C235.862 90.3021 234.804 90.5137 233.795 90.5137C231.907 90.5137 230.312 90.1882 229.01 89.5371C227.708 88.8861 226.65 88.0072 225.836 86.9004C225.022 85.7936 224.436 84.4915 224.078 82.9941C223.72 81.4967 223.541 79.9017 223.541 78.209C223.541 76.9069 223.639 75.556 223.834 74.1562C224.029 72.7565 224.306 71.4056 224.664 70.1035C224.729 69.9082 224.794 69.6803 224.859 69.4199C224.924 69.127 224.957 68.8828 224.957 68.6875C224.957 68.5247 224.859 68.3945 224.664 68.2969C224.111 68.1016 223.525 67.9225 222.906 67.7598C222.288 67.5645 221.669 67.3529 221.051 67.125C220.465 66.8971 219.895 66.6367 219.342 66.3438C218.821 66.0508 218.365 65.6764 217.975 65.2207C217.942 67.1738 217.617 69.1595 216.998 71.1777C216.38 73.1634 215.549 75.084 214.508 76.9395C213.499 78.7624 212.311 80.4714 210.943 82.0664C209.576 83.6615 208.128 85.0449 206.598 86.2168L206.109 85.7285C207.053 84.6868 207.916 83.4499 208.697 82.0176C209.479 80.5853 210.146 79.0879 210.699 77.5254C211.253 75.9629 211.676 74.3841 211.969 72.7891C212.294 71.194 212.457 69.6966 212.457 68.2969C212.457 67.5807 212.392 66.9134 212.262 66.2949C212.132 65.6439 211.985 65.0254 211.822 64.4395C211.692 63.8535 211.562 63.3001 211.432 62.7793C211.301 62.2259 211.236 61.6725 211.236 61.1191C211.236 60.2077 211.529 59.4915 212.115 58.9707C212.701 58.4499 213.45 58.1895 214.361 58.1895C214.85 58.1895 215.224 58.3359 215.484 58.6289C215.745 58.8893 215.973 59.2148 216.168 59.6055C216.363 59.9961 216.591 60.403 216.852 60.8262C217.112 61.2493 217.486 61.6074 217.975 61.9004C218.593 62.2585 219.374 62.5189 220.318 62.6816C221.262 62.8444 222.255 62.9909 223.297 63.1211C224.339 63.2513 225.38 63.3815 226.422 63.5117C227.464 63.6419 228.391 63.8698 229.205 64.1953C230.051 64.4883 230.735 64.9115 231.256 65.4648C231.777 65.9857 232.037 66.7018 232.037 67.6133C232.037 68.069 231.988 68.5247 231.891 68.9805C231.826 69.4036 231.712 69.8105 231.549 70.2012C231.158 71.5684 230.816 72.9681 230.523 74.4004C230.263 75.8001 230.133 77.1999 230.133 78.5996C230.133 79.804 230.214 80.9108 230.377 81.9199C230.572 82.8965 230.914 83.7428 231.402 84.459C231.891 85.1751 232.542 85.7285 233.355 86.1191C234.169 86.5098 235.211 86.7051 236.48 86.7051C238.303 86.7051 239.898 86.2656 241.266 85.3867C242.633 84.4753 243.837 83.2871 244.879 81.8223L245.318 82.0176ZM264.947 63.4141C264.947 63.7721 264.817 64.0977 264.557 64.3906C264.296 64.651 263.987 64.7812 263.629 64.7812C263.336 64.7812 263.027 64.6999 262.701 64.5371C262.376 64.3418 262.001 64.1302 261.578 63.9023C261.188 63.6745 260.715 63.4792 260.162 63.3164C259.641 63.1211 259.039 63.0234 258.355 63.0234C256.76 63.0234 255.328 63.528 254.059 64.5371C252.822 65.5137 251.764 66.7344 250.885 68.1992C250.038 69.6641 249.387 71.2266 248.932 72.8867C248.476 74.5469 248.248 76.0443 248.248 77.3789C248.248 78.3229 248.329 79.2507 248.492 80.1621C248.655 81.041 248.932 81.8548 249.322 82.6035C249.745 83.3197 250.315 83.9056 251.031 84.3613C251.747 84.7845 252.659 84.9961 253.766 84.9961C254.938 84.9961 256.061 84.7845 257.135 84.3613C258.209 83.9056 259.218 83.3197 260.162 82.6035C260.195 81.5618 260.357 80.4714 260.65 79.332C260.976 78.1602 261.383 77.0208 261.871 75.9141C262.359 74.7747 262.913 73.7005 263.531 72.6914C264.182 71.6823 264.85 70.7871 265.533 70.0059L266.168 70.3965C265.81 71.5033 265.549 72.6426 265.387 73.8145C265.224 74.9863 265.143 76.1419 265.143 77.2812C265.143 78.4531 265.24 79.5599 265.436 80.6016C265.631 81.6432 265.973 82.5547 266.461 83.3359C266.949 84.0846 267.617 84.6868 268.463 85.1426C269.309 85.5658 270.4 85.7773 271.734 85.7773C273.362 85.7773 274.859 85.403 276.227 84.6543C277.594 83.9056 278.798 82.9616 279.84 81.8223L280.23 82.0176C279.645 83.1569 278.88 84.2474 277.936 85.2891C276.992 86.3307 275.934 87.2747 274.762 88.1211C273.622 88.9349 272.402 89.5859 271.1 90.0742C269.798 90.5625 268.512 90.8066 267.242 90.8066C265.452 90.8066 263.987 90.2858 262.848 89.2441C261.708 88.235 260.927 86.9492 260.504 85.3867C259.137 86.7539 257.607 87.9095 255.914 88.8535C254.254 89.765 252.496 90.2207 250.641 90.2207C249.273 90.2207 248.053 89.9603 246.979 89.4395C245.937 88.9512 245.058 88.2839 244.342 87.4375C243.626 86.5911 243.072 85.5983 242.682 84.459C242.324 83.2871 242.145 82.0664 242.145 80.7969C242.145 79.332 242.372 77.8346 242.828 76.3047C243.316 74.7422 243.967 73.2122 244.781 71.7148C245.628 70.2174 246.62 68.8014 247.76 67.4668C248.899 66.1322 250.136 64.9603 251.471 63.9512C252.838 62.9421 254.27 62.1445 255.768 61.5586C257.265 60.9727 258.795 60.6797 260.357 60.6797C260.715 60.6797 261.155 60.7285 261.676 60.8262C262.197 60.8913 262.701 61.0215 263.189 61.2168C263.678 61.4121 264.085 61.6888 264.41 62.0469C264.768 62.4049 264.947 62.8607 264.947 63.4141ZM335.65 82.0176C335.064 83.1895 334.365 84.3288 333.551 85.4355C332.737 86.5098 331.826 87.4701 330.816 88.3164C329.807 89.1628 328.684 89.8301 327.447 90.3184C326.243 90.8392 324.924 91.0996 323.492 91.0996C321.474 91.0996 319.83 90.416 318.561 89.0488C317.291 87.6816 316.249 85.9076 315.436 83.7266C314.654 81.513 314.036 79.0228 313.58 76.2559C313.124 73.4564 312.734 70.6406 312.408 67.8086C311.66 69.1432 310.96 70.543 310.309 72.0078C309.69 73.4401 309.088 74.9538 308.502 76.5488C307.916 78.1439 307.33 79.7878 306.744 81.4805C306.158 83.1732 305.523 84.9147 304.84 86.7051C304.677 87.0957 304.498 87.5352 304.303 88.0234C304.107 88.4792 303.847 88.9186 303.521 89.3418C303.229 89.7975 302.87 90.1719 302.447 90.4648C302.024 90.7578 301.52 90.9043 300.934 90.9043C300.51 90.9043 300.136 90.8066 299.811 90.6113C299.485 90.416 299.192 90.1719 298.932 89.8789C298.704 89.6185 298.492 89.3255 298.297 89C298.134 88.6419 297.988 88.3164 297.857 88.0234C297.206 86.5586 296.686 85.0612 296.295 83.5312C295.904 82.0013 295.562 80.4225 295.27 78.7949C295.009 77.1673 294.781 75.4421 294.586 73.6191C294.391 71.7962 294.195 69.8594 294 67.8086C293.316 69.4036 292.698 70.9336 292.145 72.3984C291.624 73.8307 291.103 75.2793 290.582 76.7441C290.094 78.1764 289.589 79.6738 289.068 81.2363C288.58 82.7663 288.059 84.4264 287.506 86.2168C287.376 86.64 287.229 87.0957 287.066 87.584C286.936 88.0397 286.757 88.4629 286.529 88.8535C286.334 89.2441 286.057 89.5697 285.699 89.8301C285.374 90.0905 284.951 90.2207 284.43 90.2207C283.583 90.2207 282.965 89.944 282.574 89.3906C282.184 88.8698 281.858 88.2513 281.598 87.5352C281.207 86.5586 280.833 85.2077 280.475 83.4824C280.117 81.7246 279.791 79.8203 279.498 77.7695C279.205 75.7188 278.977 73.6029 278.814 71.4219C278.652 69.2409 278.57 67.2064 278.57 65.3184C278.57 63.4954 279.059 62.1608 280.035 61.3145C281.012 60.4355 282.298 59.9961 283.893 59.9961C283.99 59.9961 284.137 59.9961 284.332 59.9961C284.527 59.9961 284.723 60.0286 284.918 60.0938C285.113 60.1263 285.276 60.1914 285.406 60.2891C285.569 60.3867 285.634 60.5169 285.602 60.6797C285.309 62.9583 285.113 65.123 285.016 67.1738C284.918 69.2246 284.885 71.2266 284.918 73.1797C284.951 75.1003 285.048 77.0046 285.211 78.8926C285.406 80.748 285.65 82.6523 285.943 84.6055C286.497 82.75 287.034 80.9759 287.555 79.2832C288.108 77.5905 288.678 75.9141 289.264 74.2539C289.85 72.5938 290.468 70.9173 291.119 69.2246C291.803 67.4993 292.535 65.6927 293.316 63.8047C293.74 62.8281 294.179 62.1445 294.635 61.7539C295.123 61.3633 295.742 61.168 296.49 61.168C297.434 61.168 298.167 61.526 298.688 62.2422C299.241 62.9583 299.599 63.7721 299.762 64.6836C300.022 66.3438 300.25 68.0527 300.445 69.8105C300.641 71.5358 300.852 73.2773 301.08 75.0352C301.308 76.793 301.585 78.5345 301.91 80.2598C302.236 81.9525 302.659 83.5964 303.18 85.1914C303.831 83.4987 304.482 81.7409 305.133 79.918C305.784 78.0625 306.451 76.207 307.135 74.3516C307.818 72.4961 308.535 70.6732 309.283 68.8828C310.064 67.0924 310.895 65.3997 311.773 63.8047C312.197 63.056 312.669 62.4375 313.189 61.9492C313.743 61.4284 314.426 61.168 315.24 61.168C315.696 61.168 316.103 61.2819 316.461 61.5098C316.819 61.7051 317.128 61.9818 317.389 62.3398C317.649 62.6654 317.861 63.0397 318.023 63.4629C318.186 63.8535 318.3 64.2604 318.365 64.6836C318.528 65.6276 318.674 66.8483 318.805 68.3457C318.967 69.8431 319.163 71.4382 319.391 73.1309C319.651 74.8236 319.96 76.5326 320.318 78.2578C320.676 79.9505 321.132 81.4967 321.686 82.8965C322.239 84.2637 322.906 85.3867 323.688 86.2656C324.469 87.1445 325.413 87.584 326.52 87.584C327.431 87.584 328.31 87.4212 329.156 87.0957C330.003 86.7376 330.8 86.2982 331.549 85.7773C332.298 85.224 332.981 84.6055 333.6 83.9219C334.251 83.2057 334.837 82.5059 335.357 81.8223L335.65 82.0176ZM361.871 74.5957C361.871 76.8743 361.497 78.9902 360.748 80.9434C359.999 82.8965 358.941 84.5892 357.574 86.0215C356.207 87.4538 354.563 88.5768 352.643 89.3906C350.755 90.2044 348.655 90.6113 346.344 90.6113C344.293 90.6113 342.438 90.2207 340.777 89.4395C339.15 88.6908 337.75 87.6654 336.578 86.3633C335.406 85.0612 334.511 83.5475 333.893 81.8223C333.274 80.0645 332.965 78.1927 332.965 76.207C332.965 74.5469 333.193 72.9681 333.648 71.4707C334.137 69.9733 334.804 68.5898 335.65 67.3203C336.497 66.0182 337.506 64.8301 338.678 63.7559C339.85 62.6491 341.119 61.6562 342.486 60.7773L343.072 61.2168C341.705 62.8118 340.631 64.5697 339.85 66.4902C339.068 68.4108 338.678 70.4453 338.678 72.5938C338.678 74.1562 338.906 75.7513 339.361 77.3789C339.85 78.974 340.549 80.4388 341.461 81.7734C342.372 83.1081 343.512 84.1986 344.879 85.0449C346.246 85.8913 347.809 86.3145 349.566 86.3145C350.673 86.3145 351.715 86.0866 352.691 85.6309C353.668 85.1751 354.514 84.5566 355.23 83.7754C355.979 82.9941 356.565 82.1152 356.988 81.1387C357.444 80.1296 357.672 79.0879 357.672 78.0137C357.672 76.972 357.509 75.9629 357.184 74.9863C356.891 73.9772 356.467 73.0495 355.914 72.2031C355.361 71.3242 354.693 70.543 353.912 69.8594C353.131 69.1432 352.285 68.5573 351.373 68.1016C350.852 67.8411 350.348 67.6458 349.859 67.5156C349.404 67.3854 348.899 67.2389 348.346 67.0762C348.118 67.0436 347.874 66.9948 347.613 66.9297C347.353 66.832 347.109 66.7344 346.881 66.6367C346.653 66.5065 346.458 66.3438 346.295 66.1484C346.132 65.9531 346.051 65.709 346.051 65.416C346.051 64.8301 346.262 64.293 346.686 63.8047C347.109 63.3164 347.613 62.8932 348.199 62.5352C348.785 62.1445 349.404 61.8516 350.055 61.6562C350.706 61.4284 351.275 61.3145 351.764 61.3145C353.424 61.3145 354.889 61.7376 356.158 62.584C357.428 63.4303 358.486 64.5046 359.332 65.8066C360.178 67.1087 360.813 68.541 361.236 70.1035C361.66 71.666 361.871 73.1634 361.871 74.5957ZM408.258 82.0176C407.639 83.1895 406.972 84.3125 406.256 85.3867C405.572 86.4609 404.791 87.4049 403.912 88.2188C403.033 89.0326 402.04 89.6836 400.934 90.1719C399.827 90.6602 398.557 90.9043 397.125 90.9043C395.497 90.9043 394.098 90.4974 392.926 89.6836C391.754 88.9023 390.745 87.8607 389.898 86.5586C389.085 85.224 388.417 83.7103 387.896 82.0176C387.408 80.3249 387.001 78.5996 386.676 76.8418C386.35 75.084 386.106 73.3587 385.943 71.666C385.781 69.9408 385.634 68.3945 385.504 67.0273C384.885 67.5156 384.137 68.4596 383.258 69.8594C382.379 71.2266 381.484 72.8379 380.572 74.6934C379.661 76.5488 378.782 78.5671 377.936 80.748C377.122 82.929 376.454 85.0775 375.934 87.1934C375.836 87.6491 375.673 88.1211 375.445 88.6094C375.25 89.0977 374.99 89.5371 374.664 89.9277C374.371 90.3509 374.013 90.6927 373.59 90.9531C373.167 91.2461 372.695 91.3926 372.174 91.3926C371.327 91.3926 370.709 91.0996 370.318 90.5137C369.96 89.9277 369.7 89.2604 369.537 88.5117C368.593 84.3776 367.926 80.4225 367.535 76.6465C367.177 72.8704 366.998 69.0944 366.998 65.3184C366.998 64.4069 367.145 63.6257 367.438 62.9746C367.763 62.291 368.186 61.7376 368.707 61.3145C369.228 60.8587 369.846 60.5332 370.562 60.3379C371.279 60.11 372.027 59.9961 372.809 59.9961C372.906 59.9961 373.053 59.9961 373.248 59.9961C373.476 59.9961 373.688 60.0286 373.883 60.0938C374.078 60.1263 374.241 60.1914 374.371 60.2891C374.501 60.3867 374.55 60.5169 374.518 60.6797C373.671 64.944 373.264 69.2897 373.297 73.7168C373.329 78.1113 373.557 82.3431 373.98 86.4121C374.339 84.7845 374.859 82.9453 375.543 80.8945C376.259 78.8112 377.073 76.7279 377.984 74.6445C378.928 72.5286 379.938 70.5267 381.012 68.6387C382.118 66.7181 383.242 65.1068 384.381 63.8047C384.934 63.1862 385.488 62.6654 386.041 62.2422C386.627 61.7865 387.343 61.5586 388.189 61.5586C388.678 61.5586 389.085 61.6562 389.41 61.8516C389.736 62.0469 389.996 62.291 390.191 62.584C390.419 62.877 390.582 63.2188 390.68 63.6094C390.81 63.9674 390.908 64.3255 390.973 64.6836C391.135 65.6276 391.298 66.8483 391.461 68.3457C391.624 69.8431 391.819 71.4382 392.047 73.1309C392.307 74.8236 392.617 76.5326 392.975 78.2578C393.333 79.9505 393.788 81.4967 394.342 82.8965C394.895 84.2637 395.562 85.3867 396.344 86.2656C397.125 87.1445 398.053 87.584 399.127 87.584C400.006 87.584 400.852 87.4212 401.666 87.0957C402.512 86.7376 403.31 86.2982 404.059 85.7773C404.807 85.224 405.507 84.6055 406.158 83.9219C406.809 83.2057 407.395 82.5059 407.916 81.8223L408.258 82.0176ZM437.213 82.0176C436.497 83.222 435.65 84.3451 434.674 85.3867C433.73 86.4284 432.672 87.3398 431.5 88.1211C430.361 88.9023 429.124 89.5046 427.789 89.9277C426.454 90.3835 425.071 90.6113 423.639 90.6113C421.523 90.6113 419.651 90.2533 418.023 89.5371C416.428 88.821 415.045 87.8607 413.873 86.6562C412.701 85.4193 411.725 83.987 410.943 82.3594C410.162 80.7318 409.544 79.0391 409.088 77.2812C408.632 75.4909 408.307 73.668 408.111 71.8125C407.916 69.957 407.818 68.1829 407.818 66.4902C407.818 64.9277 407.883 63.3327 408.014 61.7051C408.144 60.0449 408.339 58.3522 408.6 56.627C407.59 56.6595 406.598 56.6758 405.621 56.6758C404.677 56.6758 403.733 56.6758 402.789 56.6758C402.171 56.6758 401.471 56.6595 400.689 56.627C399.908 56.5944 399.176 56.4642 398.492 56.2363C397.809 56.0085 397.239 55.6667 396.783 55.2109C396.327 54.7552 396.1 54.0879 396.1 53.209C396.1 52.7207 396.197 52.3301 396.393 52.0371C396.555 51.7441 396.799 51.5326 397.125 51.4023C397.418 51.2396 397.776 51.1419 398.199 51.1094C398.59 51.0443 398.997 51.0117 399.42 51.0117C399.908 51.0117 401.064 51.0931 402.887 51.2559C404.71 51.4186 406.907 51.5977 409.479 51.793C410.292 47.9518 411.334 44.1758 412.604 40.4648C413.906 36.7539 415.37 33.3685 416.998 30.3086H417.682C416.64 33.8568 415.712 37.4375 414.898 41.0508C414.117 44.6641 413.531 48.3262 413.141 52.0371C415.517 52.1999 417.958 52.3464 420.465 52.4766C423.004 52.5742 425.478 52.623 427.887 52.623C431.435 52.623 434.316 52.5905 436.529 52.5254C438.743 52.4603 440.484 52.3789 441.754 52.2812C443.251 52.151 444.374 52.0208 445.123 51.8906L445.318 52.7207C443.365 53.1764 441.135 53.6159 438.629 54.0391C436.122 54.4297 433.453 54.7878 430.621 55.1133C427.789 55.4062 424.859 55.6667 421.832 55.8945C418.805 56.1224 415.794 56.3014 412.799 56.4316C412.734 57.0827 412.701 57.75 412.701 58.4336C412.701 59.0846 412.701 59.7357 412.701 60.3867C412.701 61.9492 412.766 63.6745 412.896 65.5625C413.059 67.4505 413.336 69.3548 413.727 71.2754C414.117 73.1634 414.638 75.0189 415.289 76.8418C415.973 78.6322 416.852 80.2272 417.926 81.627C419.033 82.9941 420.351 84.1009 421.881 84.9473C423.411 85.7936 425.217 86.2168 427.301 86.2168C429.221 86.2168 430.947 85.7936 432.477 84.9473C434.039 84.1009 435.52 83.0592 436.92 81.8223L437.213 82.0176ZM462.75 74.5957C462.75 76.8743 462.376 78.9902 461.627 80.9434C460.878 82.8965 459.82 84.5892 458.453 86.0215C457.086 87.4538 455.442 88.5768 453.521 89.3906C451.633 90.2044 449.534 90.6113 447.223 90.6113C445.172 90.6113 443.316 90.2207 441.656 89.4395C440.029 88.6908 438.629 87.6654 437.457 86.3633C436.285 85.0612 435.39 83.5475 434.771 81.8223C434.153 80.0645 433.844 78.1927 433.844 76.207C433.844 74.5469 434.072 72.9681 434.527 71.4707C435.016 69.9733 435.683 68.5898 436.529 67.3203C437.376 66.0182 438.385 64.8301 439.557 63.7559C440.729 62.6491 441.998 61.6562 443.365 60.7773L443.951 61.2168C442.584 62.8118 441.51 64.5697 440.729 66.4902C439.947 68.4108 439.557 70.4453 439.557 72.5938C439.557 74.1562 439.785 75.7513 440.24 77.3789C440.729 78.974 441.428 80.4388 442.34 81.7734C443.251 83.1081 444.391 84.1986 445.758 85.0449C447.125 85.8913 448.688 86.3145 450.445 86.3145C451.552 86.3145 452.594 86.0866 453.57 85.6309C454.547 85.1751 455.393 84.5566 456.109 83.7754C456.858 82.9941 457.444 82.1152 457.867 81.1387C458.323 80.1296 458.551 79.0879 458.551 78.0137C458.551 76.972 458.388 75.9629 458.062 74.9863C457.77 73.9772 457.346 73.0495 456.793 72.2031C456.24 71.3242 455.572 70.543 454.791 69.8594C454.01 69.1432 453.163 68.5573 452.252 68.1016C451.731 67.8411 451.227 67.6458 450.738 67.5156C450.283 67.3854 449.778 67.2389 449.225 67.0762C448.997 67.0436 448.753 66.9948 448.492 66.9297C448.232 66.832 447.988 66.7344 447.76 66.6367C447.532 66.5065 447.337 66.3438 447.174 66.1484C447.011 65.9531 446.93 65.709 446.93 65.416C446.93 64.8301 447.141 64.293 447.564 63.8047C447.988 63.3164 448.492 62.8932 449.078 62.5352C449.664 62.1445 450.283 61.8516 450.934 61.6562C451.585 61.4284 452.154 61.3145 452.643 61.3145C454.303 61.3145 455.768 61.7376 457.037 62.584C458.307 63.4303 459.365 64.5046 460.211 65.8066C461.057 67.1087 461.692 68.541 462.115 70.1035C462.538 71.666 462.75 73.1634 462.75 74.5957Z" fill="white"/>
<path d="M173.541 99.0098H464.459V103.99H173.541V99.0098Z" fill="white"/>
</g>
<defs>
<filter id="filter0_d_19_180" x="218" y="67" width="292" height="56" filterUnits="userSpaceOnUse" color-interpolation-filters="sRGB">
<feFlood flood-opacity="0" result="BackgroundImageFix"/>
<feColorMatrix in="SourceAlpha" type="matrix" values="0 0 0 0 0 0 0 0 0 0 0 0 0 0 0 0 0 0 127 0" result="hardAlpha"/>
<feOffset dy="4"/>
<feGaussianBlur stdDeviation="5"/>
<feComposite in2="hardAlpha" operator="out"/>
<feColorMatrix type="matrix" values="0 0 0 0 0 0 0 0 0 0 0 0 0 0 0 0 0 0 0.25 0"/>
<feBlend mode="normal" in2="BackgroundImageFix" result="effect1_dropShadow_19_180"/>
<feBlend mode="normal" in="SourceGraphic" in2="effect1_dropShadow_19_180" result="shape"/>
</filter>
<filter id="filter1_d_19_180" x="463.517" y="9.91235" width="42.1765" height="42.1765" filterUnits="userSpaceOnUse" color-interpolation-filters="sRGB">
<feFlood flood-opacity="0" result="BackgroundImageFix"/>
<feColorMatrix in="SourceAlpha" type="matrix" values="0 0 0 0 0 0 0 0 0 0 0 0 0 0 0 0 0 0 127 0" result="hardAlpha"/>
<feOffset dy="4"/>
<feGaussianBlur stdDeviation="5"/>
<feComposite in2="hardAlpha" operator="out"/>
<feColorMatrix type="matrix" values="0 0 0 0 0 0 0 0 0 0 0 0 0 0 0 0 0 0 0.25 0"/>
<feBlend mode="normal" in2="BackgroundImageFix" result="effect1_dropShadow_19_180"/>
<feBlend mode="normal" in="SourceGraphic" in2="effect1_dropShadow_19_180" result="shape"/>
</filter>
<filter id="filter2_d_19_180" x="439" y="22.3379" width="39.7446" height="30.0798" filterUnits="userSpaceOnUse" color-interpolation-filters="sRGB">
<feFlood flood-opacity="0" result="BackgroundImageFix"/>
<feColorMatrix in="SourceAlpha" type="matrix" values="0 0 0 0 0 0 0 0 0 0 0 0 0 0 0 0 0 0 127 0" result="hardAlpha"/>
<feOffset dy="4"/>
<feGaussianBlur stdDeviation="5"/>
<feComposite in2="hardAlpha" operator="out"/>
<feColorMatrix type="matrix" values="0 0 0 0 0 0 0 0 0 0 0 0 0 0 0 0 0 0 0.25 0"/>
<feBlend mode="normal" in2="BackgroundImageFix" result="effect1_dropShadow_19_180"/>
<feBlend mode="normal" in="SourceGraphic" in2="effect1_dropShadow_19_180" result="shape"/>
</filter>
<filter id="filter3_d_19_180" x="447.115" y="29.9058" width="34.457" height="36.5339" filterUnits="userSpaceOnUse" color-interpolation-filters="sRGB">
<feFlood flood-opacity="0" result="BackgroundImageFix"/>
<feColorMatrix in="SourceAlpha" type="matrix" values="0 0 0 0 0 0 0 0 0 0 0 0 0 0 0 0 0 0 127 0" result="hardAlpha"/>
<feOffset dy="4"/>
<feGaussianBlur stdDeviation="5"/>
<feComposite in2="hardAlpha" operator="out"/>
<feColorMatrix type="matrix" values="0 0 0 0 0 0 0 0 0 0 0 0 0 0 0 0 0 0 0.25 0"/>
<feBlend mode="normal" in2="BackgroundImageFix" result="effect1_dropShadow_19_180"/>
<feBlend mode="normal" in="SourceGraphic" in2="effect1_dropShadow_19_180" result="shape"/>
</filter>
<filter id="filter4_d_19_180" x="461.604" y="34.8599" width="27.7742" height="41.0271" filterUnits="userSpaceOnUse" color-interpolation-filters="sRGB">
<feFlood flood-opacity="0" result="BackgroundImageFix"/>
<feColorMatrix in="SourceAlpha" type="matrix" values="0 0 0 0 0 0 0 0 0 0 0 0 0 0 0 0 0 0 127 0" result="hardAlpha"/>
<feOffset dy="4"/>
<feGaussianBlur stdDeviation="5"/>
<feComposite in2="hardAlpha" operator="out"/>
<feColorMatrix type="matrix" values="0 0 0 0 0 0 0 0 0 0 0 0 0 0 0 0 0 0 0.25 0"/>
<feBlend mode="normal" in2="BackgroundImageFix" result="effect1_dropShadow_19_180"/>
<feBlend mode="normal" in="SourceGraphic" in2="effect1_dropShadow_19_180" result="shape"/>
</filter>
<filter id="filter5_d_19_180" x="476.774" y="34.4819" width="28.3423" height="40.8142" filterUnits="userSpaceOnUse" color-interpolation-filters="sRGB">
<feFlood flood-opacity="0" result="BackgroundImageFix"/>
<feColorMatrix in="SourceAlpha" type="matrix" values="0 0 0 0 0 0 0 0 0 0 0 0 0 0 0 0 0 0 127 0" result="hardAlpha"/>
<feOffset dy="4"/>
<feGaussianBlur stdDeviation="5"/>
<feComposite in2="hardAlpha" operator="out"/>
<feColorMatrix type="matrix" values="0 0 0 0 0 0 0 0 0 0 0 0 0 0 0 0 0 0 0.25 0"/>
<feBlend mode="normal" in2="BackgroundImageFix" result="effect1_dropShadow_19_180"/>
<feBlend mode="normal" in="SourceGraphic" in2="effect1_dropShadow_19_180" result="shape"/>
</filter>
<filter id="filter6_d_19_180" x="158.17" y="12.7852" width="314.58" height="106.621" filterUnits="userSpaceOnUse" color-interpolation-filters="sRGB">
<feFlood flood-opacity="0" result="BackgroundImageFix"/>
<feColorMatrix in="SourceAlpha" type="matrix" values="0 0 0 0 0 0 0 0 0 0 0 0 0 0 0 0 0 0 127 0" result="hardAlpha"/>
<feOffset dy="4"/>
<feGaussianBlur stdDeviation="5"/>
<feComposite in2="hardAlpha" operator="out"/>
<feColorMatrix type="matrix" values="0 0 0 0 0 0 0 0 0 0 0 0 0 0 0 0 0 0 0.55 0"/>
<feBlend mode="normal" in2="BackgroundImageFix" result="effect1_dropShadow_19_180"/>
<feBlend mode="normal" in="SourceGraphic" in2="effect1_dropShadow_19_180" result="shape"/>
</filter>
</defs>
</svg>
