<svg width="40" height="40" viewBox="0 0 55 54" fill="none" xmlns="http://www.w3.org/2000/svg">
<g clip-path="url(#clip0_13_50)">
<g filter="url(#filter0_d_13_50)">
<path d="M27.3903 5.48438C23.1349 5.48437 18.9751 6.74624 15.4368 9.11041C11.8986 11.4746 9.14089 14.8349 7.51242 18.7663C5.88396 22.6978 5.45788 27.0239 6.28806 31.1975C7.11825 35.3711 9.16741 39.2048 12.1764 42.2138C15.1854 45.2229 19.0192 47.272 23.1928 48.1022C27.3664 48.9324 31.6925 48.5063 35.6239 46.8778C39.5554 45.2494 42.9157 42.4917 45.2799 38.9534C47.644 35.4152 48.9059 31.2554 48.9059 27C48.8947 21.2971 46.6243 15.831 42.5918 11.7985C38.5593 7.76592 33.0931 5.49552 27.3903 5.48438V5.48438ZM27.3903 45.9844C23.6355 45.9844 19.9651 44.871 16.8431 42.7849C13.7212 40.6989 11.2879 37.734 9.85099 34.265C8.41411 30.7961 8.03816 26.9789 8.77067 23.2963C9.50319 19.6137 11.3113 16.231 13.9663 13.576C16.6213 10.921 20.004 9.11292 23.6866 8.3804C27.3692 7.64789 31.1863 8.02384 34.6553 9.46072C38.1242 10.8976 41.0892 13.3309 43.1752 16.4528C45.2612 19.5748 46.3746 23.2452 46.3746 27C46.3691 32.0333 44.3671 36.8588 40.8081 40.4178C37.249 43.9769 32.4235 45.9788 27.3903 45.9844ZM20.2184 27C20.2184 28.5053 20.692 29.9723 21.5721 31.1935C22.4523 32.4146 23.6943 33.3278 25.1223 33.8038C26.5503 34.2798 28.0919 34.2945 29.5287 33.8457C30.9655 33.3968 32.2246 32.5073 33.1278 31.3031C33.3292 31.0346 33.629 30.8571 33.9613 30.8096C34.2936 30.7621 34.6311 30.8486 34.8996 31.05C35.1682 31.2514 35.3457 31.5512 35.3932 31.8835C35.4406 32.2158 35.3542 32.5533 35.1528 32.8219C33.9309 34.4511 32.2273 35.6545 30.2834 36.2618C28.3395 36.869 26.2539 36.8492 24.3219 36.2052C22.3899 35.5612 20.7095 34.3256 19.5187 32.6735C18.3279 31.0214 17.6871 29.0365 17.6871 27C17.6871 24.9635 18.3279 22.9786 19.5187 21.3265C20.7095 19.6744 22.3899 18.4388 24.3219 17.7948C26.2539 17.1508 28.3395 17.131 30.2834 17.7382C32.2273 18.3455 33.9309 19.5489 35.1528 21.1781C35.2525 21.3111 35.3251 21.4624 35.3663 21.6234C35.4075 21.7844 35.4167 21.952 35.3932 22.1165C35.3697 22.281 35.314 22.4393 35.2293 22.5823C35.1446 22.7253 35.0326 22.8503 34.8996 22.95C34.7667 23.0497 34.6154 23.1223 34.4544 23.1635C34.2934 23.2048 34.1258 23.2139 33.9613 23.1904C33.7968 23.1669 33.6385 23.1112 33.4954 23.0265C33.3524 22.9419 33.2275 22.8298 33.1278 22.6969C32.2246 21.4927 30.9655 20.6032 29.5287 20.1543C28.0919 19.7055 26.5503 19.7202 25.1223 20.1962C23.6943 20.6722 22.4523 21.5854 21.5721 22.8065C20.692 24.0277 20.2184 25.4948 20.2184 27Z" fill="white"/>
</g>
</g>
<defs>
<filter id="filter0_d_13_50" x="1.87463" y="5.48438" width="51.0312" height="51.0312" filterUnits="userSpaceOnUse" color-interpolation-filters="sRGB">
<feFlood flood-opacity="0" result="BackgroundImageFix"/>
<feColorMatrix in="SourceAlpha" type="matrix" values="0 0 0 0 0 0 0 0 0 0 0 0 0 0 0 0 0 0 127 0" result="hardAlpha"/>
<feOffset dy="4"/>
<feGaussianBlur stdDeviation="2"/>
<feComposite in2="hardAlpha" operator="out"/>
<feColorMatrix type="matrix" values="0 0 0 0 0 0 0 0 0 0 0 0 0 0 0 0 0 0 0.25 0"/>
<feBlend mode="normal" in2="BackgroundImageFix" result="effect1_dropShadow_13_50"/>
<feBlend mode="normal" in="SourceGraphic" in2="effect1_dropShadow_13_50" result="shape"/>
</filter>
<clipPath id="clip0_13_50">
<rect width="54" height="54" fill="white" transform="translate(0.390259)"/>
</clipPath>
</defs>
</svg>
