<svg width="104" height="104" viewBox="0 0 104 104" fill="none" xmlns="http://www.w3.org/2000/svg">
<g filter="url(#filter0_bd_14_112)">
<mask id="path-1-inside-1_14_112" fill="white">
<path d="M4 10C4 4.47715 8.47715 0 14 0H90C95.5228 0 100 4.47715 100 10V86C100 91.5228 95.5229 96 90 96H14C8.47715 96 4 91.5229 4 86V10Z"/>
</mask>
<path d="M4 10C4 4.47715 8.47715 0 14 0H90C95.5228 0 100 4.47715 100 10V86C100 91.5228 95.5229 96 90 96H14C8.47715 96 4 91.5229 4 86V10Z" fill="#A3A380"/>
<path d="M2 10C2 3.37258 7.37258 -2 14 -2H88C94.6274 -2 100 3.37258 100 10C100 5.58172 95.5229 2 90 2H14C9.58172 2 6 5.58172 6 10H2ZM100 96H4H100ZM14 96C7.37258 96 2 90.6274 2 84V10C2 3.37258 7.37258 -2 14 -2V2C9.58172 2 6 5.58172 6 10V86C6 91.5229 9.58172 96 14 96ZM100 0V96V0Z" fill="#E3E3E3" mask="url(#path-1-inside-1_14_112)"/>
</g>
<path d="M79.0885 53.4375C79.0885 53.5612 79.0764 53.6478 79.0521 53.6973C77.4965 60.3275 74.2396 65.7021 69.2812 69.8213C64.3229 73.9404 58.5139 76 51.8542 76C48.3056 76 44.8724 75.3197 41.5547 73.959C38.237 72.5983 35.2778 70.6562 32.6771 68.1328L27.974 72.9199C27.5122 73.39 26.9653 73.625 26.3333 73.625C25.7014 73.625 25.1545 73.39 24.6927 72.9199C24.2309 72.4499 24 71.8932 24 71.25V54.625C24 53.9818 24.2309 53.4251 24.6927 52.9551C25.1545 52.485 25.7014 52.25 26.3333 52.25H42.6667C43.2986 52.25 43.8455 52.485 44.3073 52.9551C44.7691 53.4251 45 53.9818 45 54.625C45 55.2682 44.7691 55.8249 44.3073 56.2949L39.3125 61.3789C41.0382 63.0117 42.9948 64.2734 45.1823 65.1641C47.3698 66.0547 49.6424 66.5 52 66.5C55.2569 66.5 58.2951 65.696 61.1146 64.0879C63.934 62.4798 66.1944 60.2656 67.8958 57.4453C68.1632 57.0247 68.8073 55.5775 69.8281 53.1035C70.0226 52.5345 70.3871 52.25 70.9219 52.25H77.9219C78.2378 52.25 78.5113 52.3675 78.7422 52.6025C78.9731 52.8376 79.0885 53.1159 79.0885 53.4375ZM80 23.75V40.375C80 41.0182 79.7691 41.5749 79.3073 42.0449C78.8455 42.515 78.2986 42.75 77.6667 42.75H61.3333C60.7014 42.75 60.1545 42.515 59.6927 42.0449C59.2309 41.5749 59 41.0182 59 40.375C59 39.7318 59.2309 39.1751 59.6927 38.7051L64.724 33.584C61.1267 30.1947 56.8854 28.5 52 28.5C48.7431 28.5 45.7049 29.304 42.8854 30.9121C40.066 32.5202 37.8056 34.7344 36.1042 37.5547C35.8368 37.9753 35.1927 39.4225 34.1719 41.8965C33.9774 42.4655 33.6128 42.75 33.0781 42.75H25.8229C25.5069 42.75 25.2335 42.6325 25.0026 42.3975C24.7717 42.1624 24.6562 41.8841 24.6562 41.5625V41.3027C26.2361 34.6725 29.5174 29.2979 34.5 25.1787C39.4826 21.0596 45.316 19 52 19C55.5486 19 59 19.6865 62.3542 21.0596C65.7083 22.4326 68.6858 24.3685 71.2865 26.8672L76.026 22.0801C76.4878 21.61 77.0347 21.375 77.6667 21.375C78.2986 21.375 78.8455 21.61 79.3073 22.0801C79.7691 22.5501 80 23.1068 80 23.75Z" fill="white"/>
<defs>
<filter id="filter0_bd_14_112" x="-2" y="-6" width="108" height="110" filterUnits="userSpaceOnUse" color-interpolation-filters="sRGB">
<feFlood flood-opacity="0" result="BackgroundImageFix"/>
<feGaussianBlur in="BackgroundImage" stdDeviation="3"/>
<feComposite in2="SourceAlpha" operator="in" result="effect1_backgroundBlur_14_112"/>
<feColorMatrix in="SourceAlpha" type="matrix" values="0 0 0 0 0 0 0 0 0 0 0 0 0 0 0 0 0 0 127 0" result="hardAlpha"/>
<feOffset dy="4"/>
<feGaussianBlur stdDeviation="2"/>
<feComposite in2="hardAlpha" operator="out"/>
<feColorMatrix type="matrix" values="0 0 0 0 0 0 0 0 0 0 0 0 0 0 0 0 0 0 0.25 0"/>
<feBlend mode="normal" in2="effect1_backgroundBlur_14_112" result="effect2_dropShadow_14_112"/>
<feBlend mode="normal" in="SourceGraphic" in2="effect2_dropShadow_14_112" result="shape"/>
</filter>
</defs>
</svg>
