<svg width="56" height="57" viewBox="0 0 56 57" fill="none" xmlns="http://www.w3.org/2000/svg">
<path d="M55.0885 34.4375C55.0885 34.5612 55.0764 34.6478 55.0521 34.6973C53.4965 41.3275 50.2396 46.7021 45.2812 50.8213C40.3229 54.9404 34.5139 57 27.8542 57C24.3056 57 20.8724 56.3197 17.5547 54.959C14.237 53.5983 11.2778 51.6562 8.67708 49.1328L3.97396 53.9199C3.51215 54.39 2.96528 54.625 2.33333 54.625C1.70139 54.625 1.15451 54.39 0.692708 53.9199C0.230903 53.4499 0 52.8932 0 52.25V35.625C0 34.9818 0.230903 34.4251 0.692708 33.9551C1.15451 33.485 1.70139 33.25 2.33333 33.25H18.6667C19.2986 33.25 19.8455 33.485 20.3073 33.9551C20.7691 34.4251 21 34.9818 21 35.625C21 36.2682 20.7691 36.8249 20.3073 37.2949L15.3125 42.3789C17.0382 44.0117 18.9948 45.2734 21.1823 46.1641C23.3698 47.0547 25.6424 47.5 28 47.5C31.2569 47.5 34.2951 46.696 37.1146 45.0879C39.934 43.4798 42.1944 41.2656 43.8958 38.4453C44.1632 38.0247 44.8073 36.5775 45.8281 34.1035C46.0226 33.5345 46.3872 33.25 46.9219 33.25H53.9219C54.2378 33.25 54.5113 33.3675 54.7422 33.6025C54.9731 33.8376 55.0885 34.1159 55.0885 34.4375ZM56 4.75V21.375C56 22.0182 55.7691 22.5749 55.3073 23.0449C54.8455 23.515 54.2986 23.75 53.6667 23.75H37.3333C36.7014 23.75 36.1545 23.515 35.6927 23.0449C35.2309 22.5749 35 22.0182 35 21.375C35 20.7318 35.2309 20.1751 35.6927 19.7051L40.724 14.584C37.1267 11.1947 32.8854 9.5 28 9.5C24.7431 9.5 21.7049 10.304 18.8854 11.9121C16.066 13.5202 13.8056 15.7344 12.1042 18.5547C11.8368 18.9753 11.1927 20.4225 10.1719 22.8965C9.97743 23.4655 9.61285 23.75 9.07812 23.75H1.82292C1.50694 23.75 1.23351 23.6325 1.0026 23.3975C0.771701 23.1624 0.65625 22.8841 0.65625 22.5625V22.3027C2.23611 15.6725 5.51736 10.2979 10.5 6.17871C15.4826 2.05957 21.316 0 28 0C31.5486 0 35 0.686523 38.3542 2.05957C41.7083 3.43262 44.6858 5.36849 47.2865 7.86719L52.026 3.08008C52.4878 2.61003 53.0347 2.375 53.6667 2.375C54.2986 2.375 54.8455 2.61003 55.3073 3.08008C55.7691 3.55013 56 4.10677 56 4.75Z" fill="white"/>
</svg>
