<svg width="57" height="37" viewBox="0 0 57 37" fill="none" xmlns="http://www.w3.org/2000/svg">
<path fill-rule="evenodd" clip-rule="evenodd" d="M0.0625 18.4999C0.0625 17.9612 0.276506 17.4445 0.657439 17.0636C1.03837 16.6826 1.55503 16.4686 2.09375 16.4686H50.0028L37.2181 3.68801C36.8367 3.30659 36.6224 2.78928 36.6224 2.24988C36.6224 1.71048 36.8367 1.19317 37.2181 0.811755C37.5995 0.43034 38.1168 0.216064 38.6562 0.216064C39.1957 0.216064 39.713 0.43034 40.0944 0.811755L56.3444 17.0618C56.5335 17.2504 56.6836 17.4746 56.786 17.7214C56.8884 17.9681 56.9411 18.2327 56.9411 18.4999C56.9411 18.7671 56.8884 19.0316 56.786 19.2784C56.6836 19.5252 56.5335 19.7493 56.3444 19.938L40.0944 36.188C39.713 36.5694 39.1957 36.7837 38.6562 36.7837C38.1168 36.7837 37.5995 36.5694 37.2181 36.188C36.8367 35.8066 36.6224 35.2893 36.6224 34.7499C36.6224 34.2105 36.8367 33.6932 37.2181 33.3118L50.0028 20.5311H2.09375C1.55503 20.5311 1.03837 20.3171 0.657439 19.9362C0.276506 19.5553 0.0625 19.0386 0.0625 18.4999Z" fill="white"/>
</svg>
