<svg width="170" height="60" viewBox="0 0 199 101" fill="none" xmlns="http://www.w3.org/2000/svg">
<g filter="url(#filter0_d_13_57)">
<path d="M95.9676 75.9561C77.5637 70.7077 65.0774 71.336 49.1997 73.6627C36.299 75.5532 23.7346 84.4946 35.6105 80.1113C53.9724 73.3341 68.1444 75.1617 84.5634 77.7436C102.297 80.5322 124.502 90.0296 144.196 92.1821C157.83 93.6723 165.845 89.6894 167.057 82.0882C168.107 75.5005 166.473 73.6083 165.784 78.1663C164.438 87.0791 151.644 91.1682 140.963 88.8964C130.281 86.6246 111.541 80.3972 95.9676 75.9561Z" fill="white"/>
</g>
<g filter="url(#filter1_d_13_57)">
<path d="M109.984 71.5C109.276 72.0208 108.505 72.375 107.672 72.5625C106.859 72.75 106.036 72.8438 105.203 72.8438C102.349 72.8438 99.8069 72.4167 97.5778 71.5625C95.3694 70.7292 93.4215 69.5729 91.734 68.0938C90.0673 66.6146 88.6403 64.875 87.4528 62.875C86.2861 60.875 85.3069 58.7188 84.5153 56.4062C83.7444 54.0938 83.1507 51.6771 82.734 49.1562C82.3173 46.6354 82.0361 44.125 81.8903 41.625C81.7444 39.1042 81.7028 36.6458 81.7653 34.25C81.8486 31.8333 81.9944 29.5938 82.2028 27.5312C81.8278 28.0938 81.3694 28.9896 80.8278 30.2188C80.2861 31.4479 79.6819 32.8854 79.0153 34.5312C78.3694 36.1771 77.6923 37.9792 76.984 39.9375C76.2757 41.875 75.5673 43.8333 74.859 45.8125C74.1715 47.7917 73.4944 49.7396 72.8278 51.6562C72.1819 53.5521 71.5986 55.2812 71.0778 56.8438C70.5778 58.4062 70.1403 59.7292 69.7653 60.8125C69.4111 61.9167 69.1819 62.6562 69.0778 63.0312C68.9944 63.2812 68.8798 63.5938 68.734 63.9688C68.609 64.3438 68.4423 64.7083 68.234 65.0625C68.0465 65.4167 67.8173 65.7188 67.5465 65.9688C67.2965 66.2188 67.0048 66.3438 66.6715 66.3438C66.2965 66.3438 65.984 66.1875 65.734 65.875C65.484 65.5833 65.2757 65.2292 65.109 64.8125C64.9632 64.3958 64.8382 63.9792 64.734 63.5625C64.6507 63.1458 64.5882 62.8125 64.5465 62.5625C64.4215 61.6875 64.3069 60.5833 64.2028 59.25C64.0986 57.9167 64.0048 56.4375 63.9215 54.8125C63.859 53.1875 63.8069 51.4583 63.7653 49.625C63.7236 47.7708 63.6819 45.9167 63.6403 44.0625C63.6194 42.1875 63.5986 40.3542 63.5778 38.5625C63.5778 36.75 63.5673 35.0625 63.5465 33.5C63.5465 31.9167 63.5465 30.5 63.5465 29.25C63.5465 28 63.5465 27 63.5465 26.25C63.0882 27.2917 62.5361 28.6146 61.8903 30.2188C61.2653 31.8229 60.5778 33.625 59.8278 35.625C59.0986 37.625 58.3278 39.7812 57.5153 42.0938C56.7236 44.3854 55.9319 46.75 55.1403 49.1875C54.3694 51.625 53.6194 54.0833 52.8903 56.5625C52.1819 59.0417 51.5465 61.4479 50.984 63.7812C50.9215 63.9896 50.8382 64.2396 50.734 64.5312C50.6507 64.8438 50.5361 65.1354 50.3903 65.4062C50.2444 65.6771 50.0569 65.9062 49.8278 66.0938C49.6194 66.3021 49.359 66.4062 49.0465 66.4062C48.7548 66.4062 48.4944 66.3125 48.2653 66.125C48.0361 65.9375 47.8382 65.7083 47.6715 65.4375C47.5257 65.1875 47.4007 64.9062 47.2965 64.5938C47.2132 64.3021 47.1611 64.0312 47.1403 63.7812C47.0361 63.2604 46.9423 62.6875 46.859 62.0625C46.7965 61.4375 46.734 60.7917 46.6715 60.125C46.6298 59.4792 46.5882 58.8333 46.5465 58.1875C46.5048 57.5625 46.4632 56.9792 46.4215 56.4375C46.1923 53.5833 46.0257 50.7604 45.9215 47.9688C45.8382 45.1771 45.7965 42.3646 45.7965 39.5312C45.7965 36.7396 45.8382 33.9688 45.9215 31.2188C46.0257 28.4688 46.1715 25.6875 46.359 22.875C46.4215 22.0625 46.5153 21.1562 46.6403 20.1562C46.7653 19.1354 47.0048 18.1771 47.359 17.2812C47.734 16.3854 48.2653 15.6354 48.9528 15.0312C49.6611 14.4271 50.6194 14.125 51.8278 14.125C52.1194 14.125 52.3694 14.1979 52.5778 14.3438C52.7861 14.4688 52.8903 14.6979 52.8903 15.0312V15.3438C52.7028 16.5938 52.5153 17.8438 52.3278 19.0938C52.1403 20.3229 51.9423 21.5833 51.734 22.875C51.234 27.0417 50.8069 31.2083 50.4528 35.375C50.1194 39.5208 49.9528 43.6979 49.9528 47.9062C49.9528 49.5521 49.984 51.1771 50.0465 52.7812C50.109 54.3854 50.2236 56 50.3903 57.625C51.8278 53.1667 53.0882 49.2188 54.1715 45.7812C55.2757 42.3438 56.2444 39.3333 57.0778 36.75C57.9111 34.1667 58.609 31.9688 59.1715 30.1562C59.7548 28.3229 60.2444 26.7917 60.6403 25.5625C61.0361 24.3333 61.3486 23.3542 61.5778 22.625C61.8069 21.875 61.9944 21.3021 62.1403 20.9062C62.2861 20.4896 62.3903 20.1875 62.4528 20C62.5153 19.8125 62.5778 19.6458 62.6403 19.5C62.9528 18.7917 63.3798 18.1562 63.9215 17.5938C64.4632 17.0312 65.1611 16.75 66.0153 16.75C66.5986 16.75 67.0673 16.8958 67.4215 17.1875C67.7965 17.4792 68.0882 17.8438 68.2965 18.2812C68.5048 18.7188 68.6403 19.1979 68.7028 19.7188C68.7861 20.2396 68.8278 20.7188 68.8278 21.1562C68.7861 24.3854 68.6923 27.5833 68.5465 30.75C68.4007 33.8958 68.2757 37.0208 68.1715 40.125C68.0673 43.2292 68.0153 46.3125 68.0153 49.375C68.0361 52.4375 68.1819 55.4896 68.4528 58.5312C69.2861 56.0729 70.0569 53.7604 70.7653 51.5938C71.4736 49.4062 72.1403 47.3229 72.7653 45.3438C73.4111 43.3646 74.0257 41.4583 74.609 39.625C75.2132 37.7917 75.8278 35.9792 76.4528 34.1875C77.0986 32.3958 77.7653 30.6042 78.4528 28.8125C79.1403 27.0208 79.9007 25.1771 80.734 23.2812C80.9215 22.9062 81.1298 22.5312 81.359 22.1562C81.5882 21.7604 81.8486 21.4062 82.1403 21.0938C82.4319 20.7812 82.7653 20.5208 83.1403 20.3125C83.5153 20.1042 83.9319 20 84.3903 20C85.0361 20 85.5465 20.2083 85.9215 20.625C86.2965 21.0417 86.5778 21.5417 86.7653 22.125C86.9736 22.7083 87.109 23.3229 87.1715 23.9688C87.234 24.5938 87.2653 25.125 87.2653 25.5625C87.2653 27.4792 87.2028 29.6042 87.0778 31.9375C86.9528 34.25 86.859 36.6562 86.7965 39.1562C86.7548 41.6562 86.7861 44.1875 86.8903 46.75C86.9944 49.3125 87.2757 51.7917 87.734 54.1875C88.1923 56.5833 88.8694 58.8229 89.7653 60.9062C90.6611 62.9896 91.8694 64.8021 93.3903 66.3438C94.9111 67.9062 96.7861 69.1354 99.0153 70.0312C101.265 70.9271 103.963 71.375 107.109 71.375C107.588 71.375 108.047 71.3333 108.484 71.25C108.942 71.1875 109.38 71.0625 109.797 70.875L109.984 71.5ZM113.984 52.5312C113.442 53.3229 112.786 54.0625 112.015 54.75C111.265 55.4375 110.432 56.0312 109.515 56.5312C108.619 57.0312 107.672 57.4271 106.672 57.7188C105.692 58.0104 104.703 58.1562 103.703 58.1562C102.286 58.1562 100.963 57.9688 99.734 57.5938C98.5048 57.2396 97.4319 56.6875 96.5153 55.9375C95.5986 55.1875 94.8798 54.25 94.359 53.125C93.8382 51.9792 93.5778 50.6458 93.5778 49.125C93.5778 47.625 93.8486 46.2292 94.3903 44.9375C94.9528 43.625 95.7132 42.4896 96.6715 41.5312C97.6507 40.5521 98.7965 39.7812 100.109 39.2188C101.422 38.6562 102.828 38.375 104.328 38.375C105.036 38.375 105.692 38.4792 106.297 38.6875C106.922 38.875 107.463 39.1667 107.922 39.5625C108.38 39.9375 108.734 40.4062 108.984 40.9688C109.255 41.5312 109.39 42.1771 109.39 42.9062C109.39 43.7812 109.213 44.5521 108.859 45.2188C108.505 45.8854 108.036 46.4688 107.453 46.9688C106.869 47.4688 106.203 47.8854 105.453 48.2188C104.724 48.5521 103.953 48.8229 103.14 49.0312C102.349 49.2396 101.557 49.3958 100.765 49.5C99.9944 49.5833 99.2861 49.625 98.6403 49.625H97.8903C98.1611 51.5208 98.9111 52.9688 100.14 53.9688C101.369 54.9688 103.067 55.4688 105.234 55.4688C106.776 55.4688 108.276 55.1979 109.734 54.6562C111.213 54.1146 112.547 53.3646 113.734 52.4062L113.984 52.5312ZM97.7965 48.6875H98.5778C99.3278 48.6875 100.099 48.5729 100.89 48.3438C101.682 48.0938 102.39 47.7396 103.015 47.2812C103.661 46.8021 104.192 46.2188 104.609 45.5312C105.026 44.8438 105.234 44.0625 105.234 43.1875C105.234 42.3333 105.047 41.625 104.672 41.0625C104.317 40.5 103.692 40.2188 102.797 40.2188C101.88 40.2188 101.099 40.5 100.453 41.0625C99.8278 41.6042 99.3173 42.2812 98.9215 43.0938C98.5257 43.8854 98.234 44.7292 98.0465 45.625C97.8798 46.5 97.7965 47.2812 97.7965 47.9688V48.6875ZM139.453 52.5312C139.057 53.2812 138.63 54 138.172 54.6875C137.734 55.375 137.234 55.9792 136.672 56.5C136.109 57.0208 135.474 57.4375 134.765 57.75C134.057 58.0625 133.244 58.2188 132.328 58.2188C131.286 58.2188 130.39 57.9583 129.64 57.4375C128.89 56.9375 128.244 56.2708 127.703 55.4375C127.182 54.5833 126.755 53.6146 126.422 52.5312C126.109 51.4479 125.849 50.3438 125.64 49.2188C125.432 48.0938 125.276 46.9896 125.172 45.9062C125.067 44.8021 124.974 43.8125 124.89 42.9375C124.494 43.25 124.015 43.8542 123.453 44.75C122.89 45.625 122.317 46.6562 121.734 47.8438C121.151 49.0312 120.588 50.3229 120.047 51.7188C119.526 53.1146 119.099 54.4896 118.765 55.8438C118.703 56.1354 118.599 56.4375 118.453 56.75C118.328 57.0625 118.161 57.3438 117.953 57.5938C117.765 57.8646 117.536 58.0833 117.265 58.25C116.994 58.4375 116.692 58.5312 116.359 58.5312C115.817 58.5312 115.422 58.3438 115.172 57.9688C114.942 57.5938 114.776 57.1667 114.672 56.6875C114.067 54.0417 113.64 51.5104 113.39 49.0938C113.161 46.6771 113.047 44.2604 113.047 41.8438C113.047 41.2604 113.14 40.7604 113.328 40.3438C113.536 39.9062 113.807 39.5521 114.14 39.2812C114.474 38.9896 114.869 38.7812 115.328 38.6562C115.786 38.5104 116.265 38.4375 116.765 38.4375C116.828 38.4375 116.922 38.4375 117.047 38.4375C117.192 38.4375 117.328 38.4583 117.453 38.5C117.578 38.5208 117.682 38.5625 117.765 38.625C117.849 38.6875 117.88 38.7708 117.859 38.875C117.317 41.6042 117.057 44.3854 117.078 47.2188C117.099 50.0312 117.244 52.7396 117.515 55.3438C117.744 54.3021 118.078 53.125 118.515 51.8125C118.974 50.4792 119.494 49.1458 120.078 47.8125C120.682 46.4583 121.328 45.1771 122.015 43.9688C122.724 42.7396 123.442 41.7083 124.172 40.875C124.526 40.4792 124.88 40.1458 125.234 39.875C125.609 39.5833 126.067 39.4375 126.609 39.4375C126.922 39.4375 127.182 39.5 127.39 39.625C127.599 39.75 127.765 39.9062 127.89 40.0938C128.036 40.2812 128.14 40.5 128.203 40.75C128.286 40.9792 128.349 41.2083 128.39 41.4375C128.494 42.0417 128.599 42.8229 128.703 43.7812C128.807 44.7396 128.932 45.7604 129.078 46.8438C129.244 47.9271 129.442 49.0208 129.672 50.125C129.901 51.2083 130.192 52.1979 130.547 53.0938C130.901 53.9688 131.328 54.6875 131.828 55.25C132.328 55.8125 132.922 56.0938 133.609 56.0938C134.172 56.0938 134.713 55.9896 135.234 55.7812C135.776 55.5521 136.286 55.2708 136.765 54.9375C137.244 54.5833 137.692 54.1875 138.109 53.75C138.526 53.2917 138.901 52.8438 139.234 52.4062L139.453 52.5312ZM157.578 66.4688C157.578 67.6562 157.463 68.8438 157.234 70.0312C157.005 71.2188 156.661 72.3646 156.203 73.4688C155.765 74.5938 155.213 75.6354 154.547 76.5938C153.88 77.5729 153.119 78.4167 152.265 79.125C151.411 79.8333 150.453 80.3958 149.39 80.8125C148.349 81.2292 147.213 81.4375 145.984 81.4375C144.838 81.4375 143.755 81.2083 142.734 80.75C141.713 80.2917 140.817 79.6771 140.047 78.9062C139.297 78.1354 138.703 77.2292 138.265 76.1875C137.828 75.1667 137.609 74.0833 137.609 72.9375C137.609 71.6875 137.859 70.4896 138.359 69.3438C138.88 68.1979 139.557 67.1458 140.39 66.1875C141.224 65.2292 142.161 64.3854 143.203 63.6562C144.265 62.9271 145.349 62.3542 146.453 61.9375L146.64 62.3125C144.619 63.4167 143.057 64.9062 141.953 66.7812C140.849 68.6562 140.297 70.75 140.297 73.0625C140.297 74 140.422 74.8958 140.672 75.75C140.942 76.625 141.338 77.3958 141.859 78.0625C142.38 78.7292 143.026 79.2604 143.797 79.6562C144.588 80.0729 145.494 80.2812 146.515 80.2812C147.932 80.2812 149.109 79.8958 150.047 79.125C150.984 78.3542 151.734 77.3854 152.297 76.2188C152.859 75.0729 153.255 73.8229 153.484 72.4688C153.734 71.1146 153.859 69.8438 153.859 68.6562C153.859 67.3854 153.755 66.1354 153.547 64.9062C153.359 63.6771 153.119 62.4479 152.828 61.2188C152.557 59.9896 152.276 58.7604 151.984 57.5312C151.692 56.3021 151.453 55.0625 151.265 53.8125C150.828 54.3333 150.359 54.8333 149.859 55.3125C149.359 55.7708 148.817 56.1771 148.234 56.5312C147.672 56.8646 147.067 57.125 146.422 57.3125C145.776 57.5208 145.099 57.625 144.39 57.625C143.328 57.625 142.39 57.4271 141.578 57.0312C140.786 56.6562 140.119 56.1354 139.578 55.4688C139.036 54.8021 138.619 54.0312 138.328 53.1562C138.057 52.2812 137.922 51.3438 137.922 50.3438C137.922 49.2188 138.078 48.1146 138.39 47.0312C138.703 45.9479 139.14 44.9271 139.703 43.9688C140.265 43.0104 140.932 42.1146 141.703 41.2812C142.474 40.4479 143.307 39.7188 144.203 39.0938L144.578 39.2812C143.682 40.5729 142.974 41.9688 142.453 43.4688C141.953 44.9479 141.703 46.4688 141.703 48.0312C141.703 48.6979 141.776 49.4167 141.922 50.1875C142.067 50.9583 142.297 51.6667 142.609 52.3125C142.942 52.9583 143.38 53.5 143.922 53.9375C144.484 54.3542 145.172 54.5625 145.984 54.5625C146.963 54.5625 147.88 54.3542 148.734 53.9375C149.588 53.5 150.369 52.9479 151.078 52.2812C151.015 51.5104 150.984 50.7396 150.984 49.9688C150.984 48.9062 151.057 47.8021 151.203 46.6562C151.349 45.5104 151.609 44.4167 151.984 43.375C152.38 42.3125 152.911 41.3542 153.578 40.5C154.244 39.625 155.109 38.9167 156.172 38.375L156.422 38.5C155.922 39.0208 155.505 39.6042 155.172 40.25C154.838 40.875 154.567 41.5312 154.359 42.2188C154.172 42.9062 154.036 43.6146 153.953 44.3438C153.89 45.0521 153.859 45.75 153.859 46.4375C153.859 48.3542 154.047 50.1354 154.422 51.7812C154.817 53.4271 155.244 55.0417 155.703 56.625C156.182 58.2083 156.609 59.7917 156.984 61.375C157.38 62.9792 157.578 64.6771 157.578 66.4688Z" fill="white"/>
</g>
<defs>
<filter id="filter0_d_13_57" x="26.8537" y="71.9336" width="144.546" height="28.5576" filterUnits="userSpaceOnUse" color-interpolation-filters="sRGB">
<feFlood flood-opacity="0" result="BackgroundImageFix"/>
<feColorMatrix in="SourceAlpha" type="matrix" values="0 0 0 0 0 0 0 0 0 0 0 0 0 0 0 0 0 0 127 0" result="hardAlpha"/>
<feOffset dy="4"/>
<feGaussianBlur stdDeviation="2"/>
<feComposite in2="hardAlpha" operator="out"/>
<feColorMatrix type="matrix" values="0 0 0 0 0 0 0 0 0 0 0 0 0 0 0 0 0 0 0.25 0"/>
<feBlend mode="normal" in2="BackgroundImageFix" result="effect1_dropShadow_13_57"/>
<feBlend mode="normal" in="SourceGraphic" in2="effect1_dropShadow_13_57" result="shape"/>
</filter>
<filter id="filter1_d_13_57" x="41.7965" y="14.125" width="119.781" height="75.3125" filterUnits="userSpaceOnUse" color-interpolation-filters="sRGB">
<feFlood flood-opacity="0" result="BackgroundImageFix"/>
<feColorMatrix in="SourceAlpha" type="matrix" values="0 0 0 0 0 0 0 0 0 0 0 0 0 0 0 0 0 0 127 0" result="hardAlpha"/>
<feOffset dy="4"/>
<feGaussianBlur stdDeviation="2"/>
<feComposite in2="hardAlpha" operator="out"/>
<feColorMatrix type="matrix" values="0 0 0 0 0 0 0 0 0 0 0 0 0 0 0 0 0 0 0.25 0"/>
<feBlend mode="normal" in2="BackgroundImageFix" result="effect1_dropShadow_13_57"/>
<feBlend mode="normal" in="SourceGraphic" in2="effect1_dropShadow_13_57" result="shape"/>
</filter>
</defs>
</svg>
