<svg width="130" height="44" viewBox="0 0 198 64" fill="none" xmlns="http://www.w3.org/2000/svg">
<g filter="url(#filter0_d_13_49)">
<path d="M26.1715 0.3125C26.0882 0.604167 26.0048 0.979167 25.9215 1.4375C25.859 1.875 25.7861 2.36458 25.7028 2.90625C27.2236 3.03125 28.7965 3.19792 30.4215 3.40625C32.0673 3.61458 33.6715 3.88542 35.234 4.21875C36.7965 4.53125 38.2861 4.90625 39.7028 5.34375C41.1403 5.76042 42.4319 6.23958 43.5778 6.78125L43.3278 7.375C41.0361 7.08333 38.7444 6.88542 36.4528 6.78125C34.1819 6.65625 31.9111 6.59375 29.6403 6.59375C28.9111 6.59375 28.1715 6.61458 27.4215 6.65625C26.6923 6.69792 25.9528 6.73958 25.2028 6.78125C25.0361 8.32292 24.8694 10.0417 24.7028 11.9375C24.5361 13.8125 24.3798 15.7917 24.234 17.875C24.109 19.9583 23.9944 22.1146 23.8903 24.3438C23.8069 26.5521 23.7444 28.7708 23.7028 31C23.6611 33.2083 23.6507 35.3854 23.6715 37.5312C23.7132 39.6562 23.7965 41.6875 23.9215 43.625C24.0465 45.5417 24.2236 47.3229 24.4528 48.9688C24.6819 50.6146 24.9736 52.0417 25.3278 53.25C25.3694 53.4375 25.4215 53.625 25.484 53.8125C25.5673 54.0208 25.609 54.2188 25.609 54.4062C25.609 54.7396 25.5257 55 25.359 55.1875C25.1923 55.3958 24.9319 55.5 24.5778 55.5C24.1194 55.5 23.6611 55.375 23.2028 55.125C22.7653 54.875 22.3694 54.6354 22.0153 54.4062C21.3903 53.9896 20.9111 53.3229 20.5778 52.4062C20.2444 51.4896 20.0048 50.5 19.859 49.4375C19.7132 48.375 19.6298 47.3333 19.609 46.3125C19.5882 45.2917 19.5778 44.4479 19.5778 43.7812C19.5778 42.1979 19.609 40.4479 19.6715 38.5312C19.7548 36.6146 19.859 34.6042 19.984 32.5C20.1298 30.375 20.3069 28.1979 20.5153 25.9688C20.7236 23.7188 20.9736 21.5 21.2653 19.3125C21.5569 17.1042 21.8798 14.9479 22.234 12.8438C22.609 10.7396 23.0257 8.76042 23.484 6.90625C21.9423 7.01042 20.4007 7.15625 18.859 7.34375C17.3382 7.51042 15.8486 7.71875 14.3903 7.96875C12.9528 8.21875 11.5673 8.5 10.234 8.8125C8.92151 9.10417 7.70276 9.4375 6.57776 9.8125C6.32776 9.9375 6.05693 10 5.76526 10C5.16109 10 4.85901 9.69792 4.85901 9.09375C4.85901 8.67708 4.97359 8.25 5.20276 7.8125C5.43193 7.375 5.66109 6.98958 5.89026 6.65625C6.24443 6.15625 6.77568 5.71875 7.48401 5.34375C8.17151 4.94792 8.96318 4.60417 9.85901 4.3125C10.7757 4 11.734 3.75 12.734 3.5625C13.7548 3.35417 14.7444 3.1875 15.7028 3.0625C16.6611 2.91667 17.5569 2.82292 18.3903 2.78125C19.2444 2.71875 19.9423 2.6875 20.484 2.6875C21.109 2.6875 21.7653 2.70833 22.4528 2.75C23.1403 2.77083 23.8486 2.80208 24.5778 2.84375C24.9111 1.80208 25.2548 0.875 25.609 0.0625L26.1715 0.3125ZM54.234 40.5312C53.859 41.3646 53.3798 42.1146 52.7965 42.7812C52.234 43.4479 51.6194 44.0208 50.9528 44.5C50.2861 44.9583 49.5986 45.3125 48.8903 45.5625C48.1819 45.8333 47.5048 45.9688 46.859 45.9688C45.6507 45.9688 44.6298 45.7604 43.7965 45.3438C42.9632 44.9271 42.2861 44.3646 41.7653 43.6562C41.2444 42.9479 40.8694 42.1146 40.6403 41.1562C40.4111 40.1979 40.2965 39.1771 40.2965 38.0938C40.2965 37.2604 40.359 36.3958 40.484 35.5C40.609 34.6042 40.7861 33.7396 41.0153 32.9062C41.0569 32.7812 41.0986 32.6354 41.1403 32.4688C41.1819 32.2812 41.2028 32.125 41.2028 32C41.2028 31.8958 41.1403 31.8125 41.0153 31.75C40.6611 31.625 40.2861 31.5104 39.8903 31.4062C39.4944 31.2812 39.0986 31.1458 38.7028 31C38.3278 30.8542 37.9632 30.6875 37.609 30.5C37.2757 30.3125 36.984 30.0729 36.734 29.7812C36.7132 31.0312 36.5048 32.3021 36.109 33.5938C35.7132 34.8646 35.1819 36.0938 34.5153 37.2812C33.8694 38.4479 33.109 39.5417 32.234 40.5625C31.359 41.5833 30.4319 42.4688 29.4528 43.2188L29.1403 42.9062C29.7444 42.2396 30.2965 41.4479 30.7965 40.5312C31.2965 39.6146 31.7236 38.6562 32.0778 37.6562C32.4319 36.6562 32.7028 35.6458 32.8903 34.625C33.0986 33.6042 33.2028 32.6458 33.2028 31.75C33.2028 31.2917 33.1611 30.8646 33.0778 30.4688C32.9944 30.0521 32.9007 29.6562 32.7965 29.2812C32.7132 28.9062 32.6298 28.5521 32.5465 28.2188C32.4632 27.8646 32.4215 27.5104 32.4215 27.1562C32.4215 26.5729 32.609 26.1146 32.984 25.7812C33.359 25.4479 33.8382 25.2812 34.4215 25.2812C34.734 25.2812 34.9736 25.375 35.1403 25.5625C35.3069 25.7292 35.4528 25.9375 35.5778 26.1875C35.7028 26.4375 35.8486 26.6979 36.0153 26.9688C36.1819 27.2396 36.4215 27.4688 36.734 27.6562C37.1298 27.8854 37.6298 28.0521 38.234 28.1562C38.8382 28.2604 39.4736 28.3542 40.1403 28.4375C40.8069 28.5208 41.4736 28.6042 42.1403 28.6875C42.8069 28.7708 43.4007 28.9167 43.9215 29.125C44.4632 29.3125 44.9007 29.5833 45.234 29.9375C45.5673 30.2708 45.734 30.7292 45.734 31.3125C45.734 31.6042 45.7028 31.8958 45.6403 32.1875C45.5986 32.4583 45.5257 32.7188 45.4215 32.9688C45.1715 33.8438 44.9528 34.7396 44.7653 35.6562C44.5986 36.5521 44.5153 37.4479 44.5153 38.3438C44.5153 39.1146 44.5673 39.8229 44.6715 40.4688C44.7965 41.0938 45.0153 41.6354 45.3278 42.0938C45.6403 42.5521 46.0569 42.9062 46.5778 43.1562C47.0986 43.4062 47.7653 43.5312 48.5778 43.5312C49.7444 43.5312 50.7653 43.25 51.6403 42.6875C52.5153 42.1042 53.2861 41.3438 53.9528 40.4062L54.234 40.5312ZM66.7965 28.625C66.7965 28.8542 66.7132 29.0625 66.5465 29.25C66.3798 29.4167 66.1819 29.5 65.9528 29.5C65.7653 29.5 65.5673 29.4479 65.359 29.3438C65.1507 29.2188 64.9111 29.0833 64.6403 28.9375C64.3903 28.7917 64.0882 28.6667 63.734 28.5625C63.4007 28.4375 63.0153 28.375 62.5778 28.375C61.5569 28.375 60.6403 28.6979 59.8278 29.3438C59.0361 29.9688 58.359 30.75 57.7965 31.6875C57.2548 32.625 56.8382 33.625 56.5465 34.6875C56.2548 35.75 56.109 36.7083 56.109 37.5625C56.109 38.1667 56.1611 38.7604 56.2653 39.3438C56.3694 39.9062 56.5465 40.4271 56.7965 40.9062C57.0673 41.3646 57.4319 41.7396 57.8903 42.0312C58.3486 42.3021 58.9319 42.4375 59.6403 42.4375C60.3903 42.4375 61.109 42.3021 61.7965 42.0312C62.484 41.7396 63.1298 41.3646 63.734 40.9062C63.7548 40.2396 63.859 39.5417 64.0465 38.8125C64.2548 38.0625 64.5153 37.3333 64.8278 36.625C65.1403 35.8958 65.4944 35.2083 65.8903 34.5625C66.3069 33.9167 66.734 33.3438 67.1715 32.8438L67.5778 33.0938C67.3486 33.8021 67.1819 34.5312 67.0778 35.2812C66.9736 36.0312 66.9215 36.7708 66.9215 37.5C66.9215 38.25 66.984 38.9583 67.109 39.625C67.234 40.2917 67.4528 40.875 67.7653 41.375C68.0778 41.8542 68.5048 42.2396 69.0465 42.5312C69.5882 42.8021 70.2861 42.9375 71.1403 42.9375C72.1819 42.9375 73.1403 42.6979 74.0153 42.2188C74.8903 41.7396 75.6611 41.1354 76.3278 40.4062L76.5778 40.5312C76.2028 41.2604 75.7132 41.9583 75.109 42.625C74.5048 43.2917 73.8278 43.8958 73.0778 44.4375C72.3486 44.9583 71.5673 45.375 70.734 45.6875C69.9007 46 69.0778 46.1562 68.2653 46.1562C67.1194 46.1562 66.1819 45.8229 65.4528 45.1562C64.7236 44.5104 64.2236 43.6875 63.9528 42.6875C63.0778 43.5625 62.0986 44.3021 61.0153 44.9062C59.9528 45.4896 58.8278 45.7812 57.6403 45.7812C56.7653 45.7812 55.984 45.6146 55.2965 45.2812C54.6298 44.9688 54.0673 44.5417 53.609 44C53.1507 43.4583 52.7965 42.8229 52.5465 42.0938C52.3173 41.3438 52.2028 40.5625 52.2028 39.75C52.2028 38.8125 52.3486 37.8542 52.6403 36.875C52.9528 35.875 53.3694 34.8958 53.8903 33.9375C54.4319 32.9792 55.0673 32.0729 55.7965 31.2188C56.5257 30.3646 57.3173 29.6146 58.1715 28.9688C59.0465 28.3229 59.9632 27.8125 60.9215 27.4375C61.8798 27.0625 62.859 26.875 63.859 26.875C64.0882 26.875 64.3694 26.9062 64.7028 26.9688C65.0361 27.0104 65.359 27.0938 65.6715 27.2188C65.984 27.3438 66.2444 27.5208 66.4528 27.75C66.6819 27.9792 66.7965 28.2708 66.7965 28.625ZM112.047 40.5312C111.672 41.2812 111.224 42.0104 110.703 42.7188C110.182 43.4062 109.599 44.0208 108.953 44.5625C108.307 45.1042 107.588 45.5312 106.797 45.8438C106.026 46.1771 105.182 46.3438 104.265 46.3438C102.974 46.3438 101.922 45.9062 101.109 45.0312C100.297 44.1562 99.6298 43.0208 99.109 41.625C98.609 40.2083 98.2132 38.6146 97.9215 36.8438C97.6298 35.0521 97.3798 33.25 97.1715 31.4375C96.6923 32.2917 96.2444 33.1875 95.8278 34.125C95.4319 35.0417 95.0465 36.0104 94.6715 37.0312C94.2965 38.0521 93.9215 39.1042 93.5465 40.1875C93.1715 41.2708 92.7653 42.3854 92.3278 43.5312C92.2236 43.7812 92.109 44.0625 91.984 44.375C91.859 44.6667 91.6923 44.9479 91.484 45.2188C91.2965 45.5104 91.0673 45.75 90.7965 45.9375C90.5257 46.125 90.2028 46.2188 89.8278 46.2188C89.5569 46.2188 89.3173 46.1562 89.109 46.0312C88.9007 45.9062 88.7132 45.75 88.5465 45.5625C88.4007 45.3958 88.2653 45.2083 88.1403 45C88.0361 44.7708 87.9423 44.5625 87.859 44.375C87.4423 43.4375 87.109 42.4792 86.859 41.5C86.609 40.5208 86.3903 39.5104 86.2028 38.4688C86.0361 37.4271 85.8903 36.3229 85.7653 35.1562C85.6403 33.9896 85.5153 32.75 85.3903 31.4375C84.9528 32.4583 84.5569 33.4375 84.2028 34.375C83.8694 35.2917 83.5361 36.2188 83.2028 37.1562C82.8903 38.0729 82.5673 39.0312 82.234 40.0312C81.9215 41.0104 81.5882 42.0729 81.234 43.2188C81.1507 43.4896 81.0569 43.7812 80.9528 44.0938C80.8694 44.3854 80.7548 44.6562 80.609 44.9062C80.484 45.1562 80.3069 45.3646 80.0778 45.5312C79.8694 45.6979 79.5986 45.7812 79.2653 45.7812C78.7236 45.7812 78.3278 45.6042 78.0778 45.25C77.8278 44.9167 77.6194 44.5208 77.4528 44.0625C77.2028 43.4375 76.9632 42.5729 76.734 41.4688C76.5048 40.3438 76.2965 39.125 76.109 37.8125C75.9215 36.5 75.7757 35.1458 75.6715 33.75C75.5673 32.3542 75.5153 31.0521 75.5153 29.8438C75.5153 28.6771 75.8278 27.8229 76.4528 27.2812C77.0778 26.7188 77.9007 26.4375 78.9215 26.4375C78.984 26.4375 79.0778 26.4375 79.2028 26.4375C79.3278 26.4375 79.4528 26.4583 79.5778 26.5C79.7028 26.5208 79.8069 26.5625 79.8903 26.625C79.9944 26.6875 80.0361 26.7708 80.0153 26.875C79.8278 28.3333 79.7028 29.7188 79.6403 31.0312C79.5778 32.3438 79.5569 33.625 79.5778 34.875C79.5986 36.1042 79.6611 37.3229 79.7653 38.5312C79.8903 39.7188 80.0465 40.9375 80.234 42.1875C80.5882 41 80.9319 39.8646 81.2653 38.7812C81.6194 37.6979 81.984 36.625 82.359 35.5625C82.734 34.5 83.1298 33.4271 83.5465 32.3438C83.984 31.2396 84.4528 30.0833 84.9528 28.875C85.2236 28.25 85.5048 27.8125 85.7965 27.5625C86.109 27.3125 86.5048 27.1875 86.984 27.1875C87.5882 27.1875 88.0569 27.4167 88.3903 27.875C88.7444 28.3333 88.9736 28.8542 89.0778 29.4375C89.2444 30.5 89.3903 31.5938 89.5153 32.7188C89.6403 33.8229 89.7757 34.9375 89.9215 36.0625C90.0673 37.1875 90.2444 38.3021 90.4528 39.4062C90.6611 40.4896 90.9319 41.5417 91.2653 42.5625C91.6819 41.4792 92.0986 40.3542 92.5153 39.1875C92.9319 38 93.359 36.8125 93.7965 35.625C94.234 34.4375 94.6923 33.2708 95.1715 32.125C95.6715 30.9792 96.2028 29.8958 96.7653 28.875C97.0361 28.3958 97.3382 28 97.6715 27.6875C98.0257 27.3542 98.4632 27.1875 98.984 27.1875C99.2757 27.1875 99.5361 27.2604 99.7653 27.4062C99.9944 27.5312 100.192 27.7083 100.359 27.9375C100.526 28.1458 100.661 28.3854 100.765 28.6562C100.869 28.9062 100.942 29.1667 100.984 29.4375C101.088 30.0417 101.182 30.8229 101.265 31.7812C101.369 32.7396 101.494 33.7604 101.64 34.8438C101.807 35.9271 102.005 37.0208 102.234 38.125C102.463 39.2083 102.755 40.1979 103.109 41.0938C103.463 41.9688 103.89 42.6875 104.39 43.25C104.89 43.8125 105.494 44.0938 106.203 44.0938C106.786 44.0938 107.349 43.9896 107.89 43.7812C108.432 43.5521 108.942 43.2708 109.422 42.9375C109.901 42.5833 110.338 42.1875 110.734 41.75C111.151 41.2917 111.526 40.8438 111.859 40.4062L112.047 40.5312ZM128.828 35.7812C128.828 37.2396 128.588 38.5938 128.109 39.8438C127.63 41.0938 126.953 42.1771 126.078 43.0938C125.203 44.0104 124.151 44.7292 122.922 45.25C121.713 45.7708 120.369 46.0312 118.89 46.0312C117.578 46.0312 116.39 45.7812 115.328 45.2812C114.286 44.8021 113.39 44.1458 112.64 43.3125C111.89 42.4792 111.317 41.5104 110.922 40.4062C110.526 39.2812 110.328 38.0833 110.328 36.8125C110.328 35.75 110.474 34.7396 110.765 33.7812C111.078 32.8229 111.505 31.9375 112.047 31.125C112.588 30.2917 113.234 29.5312 113.984 28.8438C114.734 28.1354 115.547 27.5 116.422 26.9375L116.797 27.2188C115.922 28.2396 115.234 29.3646 114.734 30.5938C114.234 31.8229 113.984 33.125 113.984 34.5C113.984 35.5 114.13 36.5208 114.422 37.5625C114.734 38.5833 115.182 39.5208 115.765 40.375C116.349 41.2292 117.078 41.9271 117.953 42.4688C118.828 43.0104 119.828 43.2812 120.953 43.2812C121.661 43.2812 122.328 43.1354 122.953 42.8438C123.578 42.5521 124.119 42.1562 124.578 41.6562C125.057 41.1562 125.432 40.5938 125.703 39.9688C125.994 39.3229 126.14 38.6562 126.14 37.9688C126.14 37.3021 126.036 36.6562 125.828 36.0312C125.64 35.3854 125.369 34.7917 125.015 34.25C124.661 33.6875 124.234 33.1875 123.734 32.75C123.234 32.2917 122.692 31.9167 122.109 31.625C121.776 31.4583 121.453 31.3333 121.14 31.25C120.849 31.1667 120.526 31.0729 120.172 30.9688C120.026 30.9479 119.869 30.9167 119.703 30.875C119.536 30.8125 119.38 30.75 119.234 30.6875C119.088 30.6042 118.963 30.5 118.859 30.375C118.755 30.25 118.703 30.0938 118.703 29.9062C118.703 29.5312 118.838 29.1875 119.109 28.875C119.38 28.5625 119.703 28.2917 120.078 28.0625C120.453 27.8125 120.849 27.625 121.265 27.5C121.682 27.3542 122.047 27.2812 122.359 27.2812C123.422 27.2812 124.359 27.5521 125.172 28.0938C125.984 28.6354 126.661 29.3229 127.203 30.1562C127.744 30.9896 128.151 31.9062 128.422 32.9062C128.692 33.9062 128.828 34.8646 128.828 35.7812ZM158.515 40.5312C158.119 41.2812 157.692 42 157.234 42.6875C156.797 43.375 156.297 43.9792 155.734 44.5C155.172 45.0208 154.536 45.4375 153.828 45.75C153.119 46.0625 152.307 46.2188 151.39 46.2188C150.349 46.2188 149.453 45.9583 148.703 45.4375C147.953 44.9375 147.307 44.2708 146.765 43.4375C146.244 42.5833 145.817 41.6146 145.484 40.5312C145.172 39.4479 144.911 38.3438 144.703 37.2188C144.494 36.0938 144.338 34.9896 144.234 33.9062C144.13 32.8021 144.036 31.8125 143.953 30.9375C143.557 31.25 143.078 31.8542 142.515 32.75C141.953 33.625 141.38 34.6562 140.797 35.8438C140.213 37.0312 139.651 38.3229 139.109 39.7188C138.588 41.1146 138.161 42.4896 137.828 43.8438C137.765 44.1354 137.661 44.4375 137.515 44.75C137.39 45.0625 137.224 45.3438 137.015 45.5938C136.828 45.8646 136.599 46.0833 136.328 46.25C136.057 46.4375 135.755 46.5312 135.422 46.5312C134.88 46.5312 134.484 46.3438 134.234 45.9688C134.005 45.5938 133.838 45.1667 133.734 44.6875C133.13 42.0417 132.703 39.5104 132.453 37.0938C132.224 34.6771 132.109 32.2604 132.109 29.8438C132.109 29.2604 132.203 28.7604 132.39 28.3438C132.599 27.9062 132.869 27.5521 133.203 27.2812C133.536 26.9896 133.932 26.7812 134.39 26.6562C134.849 26.5104 135.328 26.4375 135.828 26.4375C135.89 26.4375 135.984 26.4375 136.109 26.4375C136.255 26.4375 136.39 26.4583 136.515 26.5C136.64 26.5208 136.744 26.5625 136.828 26.625C136.911 26.6875 136.942 26.7708 136.922 26.875C136.38 29.6042 136.119 32.3854 136.14 35.2188C136.161 38.0312 136.307 40.7396 136.578 43.3438C136.807 42.3021 137.14 41.125 137.578 39.8125C138.036 38.4792 138.557 37.1458 139.14 35.8125C139.744 34.4583 140.39 33.1771 141.078 31.9688C141.786 30.7396 142.505 29.7083 143.234 28.875C143.588 28.4792 143.942 28.1458 144.297 27.875C144.672 27.5833 145.13 27.4375 145.672 27.4375C145.984 27.4375 146.244 27.5 146.453 27.625C146.661 27.75 146.828 27.9062 146.953 28.0938C147.099 28.2812 147.203 28.5 147.265 28.75C147.349 28.9792 147.411 29.2083 147.453 29.4375C147.557 30.0417 147.661 30.8229 147.765 31.7812C147.869 32.7396 147.994 33.7604 148.14 34.8438C148.307 35.9271 148.505 37.0208 148.734 38.125C148.963 39.2083 149.255 40.1979 149.609 41.0938C149.963 41.9688 150.39 42.6875 150.89 43.25C151.39 43.8125 151.984 44.0938 152.672 44.0938C153.234 44.0938 153.776 43.9896 154.297 43.7812C154.838 43.5521 155.349 43.2708 155.828 42.9375C156.307 42.5833 156.755 42.1875 157.172 41.75C157.588 41.2917 157.963 40.8438 158.297 40.4062L158.515 40.5312ZM177.047 40.5312C176.588 41.3021 176.047 42.0208 175.422 42.6875C174.817 43.3542 174.14 43.9375 173.39 44.4375C172.661 44.9375 171.869 45.3229 171.015 45.5938C170.161 45.8854 169.276 46.0312 168.359 46.0312C167.005 46.0312 165.807 45.8021 164.765 45.3438C163.744 44.8854 162.859 44.2708 162.109 43.5C161.359 42.7083 160.734 41.7917 160.234 40.75C159.734 39.7083 159.338 38.625 159.047 37.5C158.755 36.3542 158.547 35.1875 158.422 34C158.297 32.8125 158.234 31.6771 158.234 30.5938C158.234 29.5938 158.276 28.5729 158.359 27.5312C158.442 26.4688 158.567 25.3854 158.734 24.2812C158.088 24.3021 157.453 24.3125 156.828 24.3125C156.224 24.3125 155.619 24.3125 155.015 24.3125C154.619 24.3125 154.172 24.3021 153.672 24.2812C153.172 24.2604 152.703 24.1771 152.265 24.0312C151.828 23.8854 151.463 23.6667 151.172 23.375C150.88 23.0833 150.734 22.6562 150.734 22.0938C150.734 21.7812 150.797 21.5312 150.922 21.3438C151.026 21.1562 151.182 21.0208 151.39 20.9375C151.578 20.8333 151.807 20.7708 152.078 20.75C152.328 20.7083 152.588 20.6875 152.859 20.6875C153.172 20.6875 153.911 20.7396 155.078 20.8438C156.244 20.9479 157.651 21.0625 159.297 21.1875C159.817 18.7292 160.484 16.3125 161.297 13.9375C162.13 11.5625 163.067 9.39583 164.109 7.4375H164.547C163.88 9.70833 163.286 12 162.765 14.3125C162.265 16.625 161.89 18.9688 161.64 21.3438C163.161 21.4479 164.724 21.5417 166.328 21.625C167.953 21.6875 169.536 21.7188 171.078 21.7188C173.349 21.7188 175.192 21.6979 176.609 21.6562C178.026 21.6146 179.14 21.5625 179.953 21.5C180.911 21.4167 181.63 21.3333 182.109 21.25L182.234 21.7812C180.984 22.0729 179.557 22.3542 177.953 22.625C176.349 22.875 174.64 23.1042 172.828 23.3125C171.015 23.5 169.14 23.6667 167.203 23.8125C165.265 23.9583 163.338 24.0729 161.422 24.1562C161.38 24.5729 161.359 25 161.359 25.4375C161.359 25.8542 161.359 26.2708 161.359 26.6875C161.359 27.6875 161.401 28.7917 161.484 30C161.588 31.2083 161.765 32.4271 162.015 33.6562C162.265 34.8646 162.599 36.0521 163.015 37.2188C163.453 38.3646 164.015 39.3854 164.703 40.2812C165.411 41.1562 166.255 41.8646 167.234 42.4062C168.213 42.9479 169.369 43.2188 170.703 43.2188C171.932 43.2188 173.036 42.9479 174.015 42.4062C175.015 41.8646 175.963 41.1979 176.859 40.4062L177.047 40.5312ZM193.39 35.7812C193.39 37.2396 193.151 38.5938 192.672 39.8438C192.192 41.0938 191.515 42.1771 190.64 43.0938C189.765 44.0104 188.713 44.7292 187.484 45.25C186.276 45.7708 184.932 46.0312 183.453 46.0312C182.14 46.0312 180.953 45.7812 179.89 45.2812C178.849 44.8021 177.953 44.1458 177.203 43.3125C176.453 42.4792 175.88 41.5104 175.484 40.4062C175.088 39.2812 174.89 38.0833 174.89 36.8125C174.89 35.75 175.036 34.7396 175.328 33.7812C175.64 32.8229 176.067 31.9375 176.609 31.125C177.151 30.2917 177.797 29.5312 178.547 28.8438C179.297 28.1354 180.109 27.5 180.984 26.9375L181.359 27.2188C180.484 28.2396 179.797 29.3646 179.297 30.5938C178.797 31.8229 178.547 33.125 178.547 34.5C178.547 35.5 178.692 36.5208 178.984 37.5625C179.297 38.5833 179.744 39.5208 180.328 40.375C180.911 41.2292 181.64 41.9271 182.515 42.4688C183.39 43.0104 184.39 43.2812 185.515 43.2812C186.224 43.2812 186.89 43.1354 187.515 42.8438C188.14 42.5521 188.682 42.1562 189.14 41.6562C189.619 41.1562 189.994 40.5938 190.265 39.9688C190.557 39.3229 190.703 38.6562 190.703 37.9688C190.703 37.3021 190.599 36.6562 190.39 36.0312C190.203 35.3854 189.932 34.7917 189.578 34.25C189.224 33.6875 188.797 33.1875 188.297 32.75C187.797 32.2917 187.255 31.9167 186.672 31.625C186.338 31.4583 186.015 31.3333 185.703 31.25C185.411 31.1667 185.088 31.0729 184.734 30.9688C184.588 30.9479 184.432 30.9167 184.265 30.875C184.099 30.8125 183.942 30.75 183.797 30.6875C183.651 30.6042 183.526 30.5 183.422 30.375C183.317 30.25 183.265 30.0938 183.265 29.9062C183.265 29.5312 183.401 29.1875 183.672 28.875C183.942 28.5625 184.265 28.2917 184.64 28.0625C185.015 27.8125 185.411 27.625 185.828 27.5C186.244 27.3542 186.609 27.2812 186.922 27.2812C187.984 27.2812 188.922 27.5521 189.734 28.0938C190.547 28.6354 191.224 29.3229 191.765 30.1562C192.307 30.9896 192.713 31.9062 192.984 32.9062C193.255 33.9062 193.39 34.8646 193.39 35.7812Z" fill="white"/>
</g>
<defs>
<filter id="filter0_d_13_49" x="0.859009" y="0.0625" width="196.531" height="63.4375" filterUnits="userSpaceOnUse" color-interpolation-filters="sRGB">
<feFlood flood-opacity="0" result="BackgroundImageFix"/>
<feColorMatrix in="SourceAlpha" type="matrix" values="0 0 0 0 0 0 0 0 0 0 0 0 0 0 0 0 0 0 127 0" result="hardAlpha"/>
<feOffset dy="4"/>
<feGaussianBlur stdDeviation="2"/>
<feComposite in2="hardAlpha" operator="out"/>
<feColorMatrix type="matrix" values="0 0 0 0 0 0 0 0 0 0 0 0 0 0 0 0 0 0 0.25 0"/>
<feBlend mode="normal" in2="BackgroundImageFix" result="effect1_dropShadow_13_49"/>
<feBlend mode="normal" in="SourceGraphic" in2="effect1_dropShadow_13_49" result="shape"/>
</filter>
</defs>
</svg>
