<svg width="152" height="152" viewBox="0 0 152 152" fill="none" xmlns="http://www.w3.org/2000/svg">
<g filter="url(#filter0_d_13_101)">
<path d="M143.65 72.1481C143.65 90.0257 136.548 107.171 123.906 119.812C111.265 132.454 94.1197 139.556 76.2421 139.556C58.3646 139.556 41.2192 132.454 28.5779 119.812C15.9365 107.171 8.83472 90.0257 8.83472 72.1481C8.83472 54.2706 15.9365 37.1252 28.5779 24.4839C41.2192 11.8426 58.3646 4.74072 76.2421 4.74072C94.1197 4.74072 111.265 11.8426 123.906 24.4839C136.548 37.1252 143.65 54.2706 143.65 72.1481V72.1481ZM80.4551 42.6574C80.4551 41.54 80.0112 40.4685 79.2211 39.6784C78.4311 38.8883 77.3595 38.4444 76.2421 38.4444C75.1248 38.4444 74.0532 38.8883 73.2631 39.6784C72.473 40.4685 72.0292 41.54 72.0292 42.6574V91.4688L53.9471 73.3783C53.156 72.5872 52.0831 72.1428 50.9643 72.1428C49.8456 72.1428 48.7727 72.5872 47.9816 73.3783C47.1905 74.1694 46.7461 75.2423 46.7461 76.3611C46.7461 77.4799 47.1905 78.5528 47.9816 79.3439L73.2593 104.622C73.6507 105.014 74.1156 105.325 74.6274 105.538C75.1393 105.75 75.688 105.859 76.2421 105.859C76.7963 105.859 77.345 105.75 77.8568 105.538C78.3686 105.325 78.8336 105.014 79.2249 104.622L104.503 79.3439C105.294 78.5528 105.738 77.4799 105.738 76.3611C105.738 75.2423 105.294 74.1694 104.503 73.3783C103.712 72.5872 102.639 72.1428 101.52 72.1428C100.401 72.1428 99.3282 72.5872 98.5371 73.3783L80.4551 91.4688V42.6574Z" fill="white"/>
</g>
<defs>
<filter id="filter0_d_13_101" x="0.834717" y="0.740723" width="150.815" height="150.815" filterUnits="userSpaceOnUse" color-interpolation-filters="sRGB">
<feFlood flood-opacity="0" result="BackgroundImageFix"/>
<feColorMatrix in="SourceAlpha" type="matrix" values="0 0 0 0 0 0 0 0 0 0 0 0 0 0 0 0 0 0 127 0" result="hardAlpha"/>
<feOffset dy="4"/>
<feGaussianBlur stdDeviation="4"/>
<feComposite in2="hardAlpha" operator="out"/>
<feColorMatrix type="matrix" values="0 0 0 0 0 0 0 0 0 0 0 0 0 0 0 0 0 0 0.5 0"/>
<feBlend mode="normal" in2="BackgroundImageFix" result="effect1_dropShadow_13_101"/>
<feBlend mode="normal" in="SourceGraphic" in2="effect1_dropShadow_13_101" result="shape"/>
</filter>
</defs>
</svg>
