<svg width="90" height="50" viewBox="0 0 217 72" fill="none" xmlns="http://www.w3.org/2000/svg">
<path d="M203.784 53.726C195.815 52.7401 190.336 46.8244 194.321 38.9369C198.306 31.0493 211.753 34.9931 214.742 40.9088C217.618 46.6014 216.996 58.6756 210.757 64.0784C202.788 70.9801 189.785 73.7647 171.41 67.5292C153.977 61.6136 144.97 47.8218 142.522 38.9369C138.039 22.669 116.124 9.41159 96.6992 19.7112C82.7532 27.1058 81.259 44.3598 72.7918 53.726C64.3196 63.0978 52.0266 74.7415 28.9616 68.5155C-3.91107 59.642 -3.73139 19.9533 10.533 6.89382C30.4558 -11.3462 69.8034 16.26 54.3632 41.8946C44.8616 57.6697 25.33 61.3263 15.5137 41.8946C5.55228 22.1757 23.4828 10.3443 35.9346 16.753C52.3709 25.2124 40.4172 48.3032 27.9654 37.4578" stroke="black" stroke-opacity="0.25" stroke-linecap="round"/>
</svg>
