<svg width="90" height="50" viewBox="0 0 217 73" fill="none" xmlns="http://www.w3.org/2000/svg">
<path d="M13.9962 54.4777C21.9653 53.4777 27.4441 47.4777 23.4595 39.4777C19.475 31.4777 6.02705 35.4777 3.03854 41.4777C0.162727 47.2515 0.784739 59.4979 7.02323 64.9777C14.9924 71.9777 27.996 74.802 46.3707 68.4777C63.8032 62.4777 72.8106 48.4893 75.2589 39.4777C79.7415 22.978 101.657 9.53151 121.081 19.9779C135.027 27.4779 136.522 44.978 144.989 54.4777C153.461 63.9831 165.754 75.7928 188.819 69.478C221.692 60.478 221.512 20.2235 207.248 6.97784C187.325 -11.5222 147.977 16.4775 163.417 42.4776C172.919 58.4775 192.451 62.1863 202.267 42.4776C212.228 22.4775 194.298 10.4775 181.846 16.9775C165.41 25.5575 177.363 48.9775 189.815 37.9775" stroke="black" stroke-opacity="0.25" stroke-linecap="round"/>
</svg>
