<svg width="33" height="38" viewBox="0 0 33 38" fill="none" xmlns="http://www.w3.org/2000/svg">
<g filter="url(#filter0_d_58_188)">
<path d="M6.77778 1.07143C6.77778 0.787268 6.63145 0.514746 6.37098 0.313814C6.11051 0.112882 5.75725 0 5.38889 0C5.02053 0 4.66726 0.112882 4.4068 0.313814C4.14633 0.514746 4 0.787268 4 1.07143V7.5C3.99967 8.73498 4.55248 9.93213 5.56485 10.8888C6.57723 11.8455 7.98699 12.503 9.55556 12.75V28.9286C9.55556 29.2127 9.70188 29.4853 9.96235 29.6862C10.2228 29.8871 10.5761 30 10.9444 30C11.3128 30 11.6661 29.8871 11.9265 29.6862C12.187 29.4853 12.3333 29.2127 12.3333 28.9286V12.75C13.9019 12.503 15.3117 11.8455 16.324 10.8888C17.3364 9.93213 17.8892 8.73498 17.8889 7.5V1.07143C17.8889 0.787268 17.7426 0.514746 17.4821 0.313814C17.2216 0.112882 16.8684 0 16.5 0C16.1316 0 15.7784 0.112882 15.5179 0.313814C15.2574 0.514746 15.1111 0.787268 15.1111 1.07143V7.5C15.1116 8.16498 14.8446 8.81371 14.3471 9.35677C13.8496 9.89982 13.1461 10.3105 12.3333 10.5321V1.07143C12.3333 0.787268 12.187 0.514746 11.9265 0.313814C11.6661 0.112882 11.3128 0 10.9444 0C10.5761 0 10.2228 0.112882 9.96235 0.313814C9.70188 0.514746 9.55556 0.787268 9.55556 1.07143V10.5321C8.74284 10.3105 8.03925 9.89982 7.54174 9.35677C7.04424 8.81371 6.77733 8.16498 6.77778 7.5V1.07143ZM26.2222 28.9286V15H22.0556C21.6872 15 21.3339 14.8871 21.0735 14.6862C20.813 14.4853 20.6667 14.2127 20.6667 13.9286V5.35714C20.6667 3.93643 21.5722 2.60786 22.8083 1.65214C24.0472 0.698572 25.7694 0 27.6111 0C27.9795 0 28.3327 0.112882 28.5932 0.313814C28.8537 0.514746 29 0.787268 29 1.07143V28.9286C29 29.2127 28.8537 29.4853 28.5932 29.6862C28.3327 29.8871 27.9795 30 27.6111 30C27.2428 30 26.8895 29.8871 26.629 29.6862C26.3685 29.4853 26.2222 29.2127 26.2222 28.9286Z" fill="white"/>
</g>
<defs>
<filter id="filter0_d_58_188" x="0" y="0" width="33" height="38" filterUnits="userSpaceOnUse" color-interpolation-filters="sRGB">
<feFlood flood-opacity="0" result="BackgroundImageFix"/>
<feColorMatrix in="SourceAlpha" type="matrix" values="0 0 0 0 0 0 0 0 0 0 0 0 0 0 0 0 0 0 127 0" result="hardAlpha"/>
<feOffset dy="4"/>
<feGaussianBlur stdDeviation="2"/>
<feComposite in2="hardAlpha" operator="out"/>
<feColorMatrix type="matrix" values="0 0 0 0 0 0 0 0 0 0 0 0 0 0 0 0 0 0 0.25 0"/>
<feBlend mode="normal" in2="BackgroundImageFix" result="effect1_dropShadow_58_188"/>
<feBlend mode="normal" in="SourceGraphic" in2="effect1_dropShadow_58_188" result="shape"/>
</filter>
</defs>
</svg>
