<svg width="40" height="40" viewBox="0 0 38 38" fill="none" xmlns="http://www.w3.org/2000/svg">
<g filter="url(#filter0_d_58_192)">
<path d="M33.3779 14.7592L20.5917 1.22811L19.7347 0.320671C19.5394 0.115276 19.2753 0 19.0001 0C18.7248 0 18.4607 0.115276 18.2655 0.320671L4.62224 14.7592C4.42214 14.9702 4.26401 15.2215 4.15716 15.4984C4.05031 15.7752 3.99692 16.0718 4.00014 16.3708C4.01337 17.6041 4.98292 18.5886 6.14771 18.5886H7.55406V30H30.4461V18.5886H31.8822C32.448 18.5886 32.9808 18.3539 33.3812 17.93C33.5783 17.7219 33.7346 17.4745 33.8408 17.202C33.947 16.9296 34.0011 16.6375 34 16.3428C34 15.7472 33.7783 15.1831 33.3779 14.7592ZM20.8531 27.4774H17.147V20.33H20.8531V27.4774ZM28.0635 16.066V27.4774H22.9709V19.4891C22.9709 18.7148 22.3786 18.0876 21.6473 18.0876H16.3528C15.6215 18.0876 15.0292 18.7148 15.0292 19.4891V27.4774H9.93657V16.066H6.75988L19.0034 3.11307L19.7678 3.92241L31.2435 16.066H28.0635Z" fill="white"/>
</g>
<defs>
<filter id="filter0_d_58_192" x="0" y="0" width="38" height="38" filterUnits="userSpaceOnUse" color-interpolation-filters="sRGB">
<feFlood flood-opacity="0" result="BackgroundImageFix"/>
<feColorMatrix in="SourceAlpha" type="matrix" values="0 0 0 0 0 0 0 0 0 0 0 0 0 0 0 0 0 0 127 0" result="hardAlpha"/>
<feOffset dy="4"/>
<feGaussianBlur stdDeviation="2"/>
<feComposite in2="hardAlpha" operator="out"/>
<feColorMatrix type="matrix" values="0 0 0 0 0 0 0 0 0 0 0 0 0 0 0 0 0 0 0.25 0"/>
<feBlend mode="normal" in2="BackgroundImageFix" result="effect1_dropShadow_58_192"/>
<feBlend mode="normal" in="SourceGraphic" in2="effect1_dropShadow_58_192" result="shape"/>
</filter>
</defs>
</svg>
